<?xml version="1.0" encoding="UTF-8" standalone="no"?>
<!-- Created with Inkscape (http://www.inkscape.org/) -->

<svg
   version="1.1"
   id="svg2"
   xml:space="preserve"
   width="682.66669"
   height="555.44"
   viewBox="0 0 682.66669 555.44"
   sodipodi:docname="5143311.eps"
   xmlns:inkscape="http://www.inkscape.org/namespaces/inkscape"
   xmlns:sodipodi="http://sodipodi.sourceforge.net/DTD/sodipodi-0.dtd"
   xmlns="http://www.w3.org/2000/svg"
   xmlns:svg="http://www.w3.org/2000/svg"><defs
     id="defs6" /><sodipodi:namedview
     id="namedview4"
     pagecolor="#ffffff"
     bordercolor="#666666"
     borderopacity="1.0"
     inkscape:pageshadow="2"
     inkscape:pageopacity="0.0"
     inkscape:pagecheckerboard="0" /><g
     id="g8"
     inkscape:groupmode="layer"
     inkscape:label="ink_ext_XXXXXX"
     transform="matrix(1.3333333,0,0,-1.3333333,0,555.44)"><g
       id="g10"
       transform="scale(0.1)"><path
         d="m 4894.28,204 h -459.79 c 0.77,1.449 1.55,2.891 2.32,4.34 115.98,217.359 232.75,434.34 348.65,651.769 46.96,88.121 93.8,176.321 140.37,264.641 34.31,65.07 67.5,132.98 96.42,202.8 33.83,-85.79 56.36,-176.38 67.47,-267.68 29.29,-240.901 -16.07,-486.472 -99.68,-714.28 -17.33,-47.199 -37.71,-95.801 -76.36,-127.942 -6.14,-5.097 -12.68,-9.539 -19.4,-13.648 M 546.398,204 H 485.855 C 432.914,219.59 379.215,235.969 348.598,258.789 221.031,353.91 139.133,641.039 86.7422,787.398 10.8125,999.531 -38.8047,1236.4 39.7891,1447.56 84.3125,1567.18 167.102,1668.78 264.77,1751.92 244.113,1645.01 239.305,1533.37 245.941,1422.13 267.156,1066.71 336.059,714.141 450.496,376.969 c 21.262,-62.629 45.766,-127.321 94.66,-171.848 0.414,-0.371 0.828,-0.75 1.242,-1.121 M 3687.17,2559.28 c -48,0 -95.94,2.04 -143.72,7.62 -235.65,27.47 -450.44,138.68 -640.43,284.52 1.37,0.8 2.74,1.61 4.11,2.41 141.29,82.51 305.21,120.27 468.47,131.05 27.75,1.84 55.75,2.84 83.8,2.84 148.64,0 298.74,-28.26 420.17,-111.73 109.3,-75.13 180.92,-182.42 239.46,-301.54 -11.35,0.24 -22.69,0.36 -34.04,0.36 -66.28,0 -132.66,-3.89 -199,-7.77 -66.36,-3.88 -132.66,-7.76 -198.82,-7.76"
         style="fill:#d8b3de;fill-opacity:1;fill-rule:nonzero;stroke:none"
         id="path12" /><path
         d="m 4277.96,107.082 c -8.41,0 -16.8,0.199 -25.07,0.438 -231.92,6.601 -463.31,10.82 -695.21,12.941 -534,4.859 -1067.99,9.73 -1601.99,14.609 -239.59,2.18 -479.19,4.36 -718.78,6.551 -16.66,0.149 -33.34,0.219 -49.99,0.219 -139.92,0 -279.268,-4.84 -419.033,-5.238 -0.574,0 -1.157,0 -1.731,0 C 687.699,136.59 604.715,151.75 546.398,204 H 4434.49 c -14.97,-27.891 -31.28,-56.27 -57.37,-73.98 -28.58,-19.411 -64.05,-22.938 -99.16,-22.938 m 744.29,1220.468 c -55.41,140.56 -141.12,268.26 -256.49,365.2 -94.77,79.64 -207.2,137.42 -296.09,223.58 -177.75,172.28 -241.39,435.79 -350.64,658.12 17.06,-0.38 34.1,-1.05 51.15,-2.09 227.84,-13.92 451.16,-95.29 634.56,-231.21 117.44,-87.04 220.72,-199.42 271.71,-336.43 84.23,-226.28 35.39,-460.94 -54.2,-677.17 M 264.77,1751.92 c 35.949,186.1 119.902,357.87 274.976,488.17 90.981,76.45 198.899,131.92 284.234,214.63 262.05,253.99 265.73,714.51 566.47,921.23 116.56,80.13 260.65,107.26 403.35,107.26 26.92,0 53.79,-0.97 80.42,-2.73 156.73,-10.35 314.09,-46.6 449.73,-125.8 41.31,-24.13 80.03,-51.84 117.07,-81.82 -40.55,-4.57 -79.56,-17.06 -116.28,-37.29 -7.69,-4.09 -15.57,-8.75 -23.31,-13.77 -113.26,-72.62 -185.94,-208.12 -194.57,-362.65 -0.18,-0.75 -0.29,-1.59 -0.29,-2.54 -0.68,-14.08 -0.82,-29.47 -0.4,-45.26 -0.03,-3.66 -0.04,-7.3 -0.04,-10.93 -0.26,0 -0.53,0.01 -0.79,0 l -2.37,-0.08 c -7.28,-0.52 -14.03,-3.45 -19.83,-8.06 -8.72,-6.94 -15.5,-17.55 -20.22,-30.43 -4.7,-12.89 -7.3,-28.11 -7.31,-44.49 0,-3.69 0.14,-7.43 0.41,-11.22 1.71,-23.73 8.53,-44.94 18.57,-60.57 5.02,-7.81 10.87,-14.24 17.43,-18.8 6.54,-4.56 13.89,-7.25 21.56,-7.24 l 2.37,0.08 c 3.18,0.23 6.25,0.91 9.2,2 28.32,-121.4 86.62,-215.81 168.98,-273.49 6.38,-4.43 12.42,-8.4 18.25,-11.99 -199.99,-155.13 -426.65,-273.92 -675.63,-302.95 -49.79,-5.81 -99.71,-7.94 -149.73,-7.94 -68.91,0 -137.99,4.05 -207.1,8.09 -69.11,4.05 -138.27,8.09 -207.31,8.09 -29.6,0 -59.18,-0.74 -88.731,-2.55 -237.356,-14.5 -469.988,-99.25 -661.035,-240.86 -19.805,-14.67 -39.215,-30.03 -58.074,-46.09 M 2856.1,2821.54 c -0.03,3.97 -0.07,7.94 -0.13,11.92 -0.51,19.39 -2.12,38.71 -4.8,57.56 l -0.17,1.67 c 17.12,-14.02 34.47,-27.8 52.02,-41.27 -16,-9.47 -31.62,-19.45 -46.92,-29.88"
         style="fill:#d8b3de;fill-opacity:1;fill-rule:nonzero;stroke:none"
         id="path14" /><path
         d="M 4434.49,204 H 546.398 c -0.414,0.371 -0.828,0.75 -1.242,1.121 -48.894,44.527 -73.398,109.219 -94.66,171.848 -114.437,337.172 -183.34,689.741 -204.555,1045.161 -6.636,111.24 -1.828,222.88 18.829,329.79 18.859,16.06 38.269,31.42 58.074,46.09 191.047,141.61 423.679,226.36 661.035,240.86 29.551,1.81 59.131,2.55 88.731,2.55 69.04,0 138.2,-4.04 207.31,-8.09 69.11,-4.04 138.19,-8.09 207.1,-8.09 50.02,0 99.94,2.13 149.73,7.94 248.98,29.03 475.64,147.82 675.63,302.95 3.93,-2.42 7.76,-4.66 11.53,-6.76 5.45,-3.08 11.38,-6.16 18.04,-9.34 v -162.94 c -15.01,-2.7 -64.31,-11.87 -124.7,-26.24 -128.83,-30.92 -291.05,-81.58 -332.35,-147.32 l -0.69,-1.31 -180.3,-411.79 c -2.19,-4.99 0.03,-10.81 4.97,-13.1 0.69,-0.32 3.17,-1.45 7.21,-3.23 l -149.29,-441.3 42.06,-440.171 43.42,-157.277 348.71,885.858 c 0.04,-0.23 0.08,-0.45 0.12,-0.68 0.72,-3.72 1.3,-7.12 1.89,-10.72 2.2,-12.93 4.39,-26.08 6.49,-39.53 0.82,-4.63 1.5,-9.03 2.18,-13.64 0.55,-3.15 0.97,-6.09 1.39,-9.02 l 0.72,-4.91 1.05,-7.1 1.05,-7.07 c 0.48,-3.84 1.07,-7.95 1.67,-12.13 l 0.32,-2.21 c 0.69,-4.67 1.28,-9.39 1.87,-14.2 l 0.6,-4.89 1.2,-9.79 c 0.18,-1.22 0.29,-2.13 0.41,-3.04 0.13,-1.03 0.27,-2.08 0.43,-3.15 0.68,-5.37 1.28,-10.98 1.9,-16.66 l 0.75,-6.86 c 0.56,-4.56 1.01,-9.18 1.47,-13.74 l 0.12,-1.15 c 0.3,-2.78 0.58,-5.45 0.85,-8.13 0.28,-2.72 0.56,-5.46 0.86,-8.18 l 0.6,-7.17 0.57,-6.85 c 1.51,-16.7 2.82,-33.44 3.89,-49.83 l 1.49,-27.78 c 0.28,-4.32 0.45,-8.5 0.63,-12.71 l 0.27,-6.13 0.22,-8.01 0.07,-2.79 c 0.08,-2 0.24,-3.84 0.41,-5.69 l 0.22,-2.5 c 1.35,-14.88 2.65,-31.16 3.99,-49.95 0.39,-9.06 0.89,-18.39 1.39,-27.73 0.28,-4.258 0.45,-8.461 0.63,-12.688 l 0.27,-6.141 0.29,-12.461 c 0.34,-9.101 0.5,-16.96 0.5,-24.171 0,-2.668 1.07,-5.239 2.98,-7.129 1.87,-1.828 4.39,-2.871 7.02,-2.871 h 0.15 l 175.9,2.711 115.2,1.789 26.06,0.312 220.64,3.399 189.31,2.992 125.59,1.91 c 5.51,0.078 9.92,4.609 9.85,10.117 -0.04,2.691 -2.62,238.371 35.6,443.721 l 348.51,-885.319 34.92,175.911 50.18,252.507 -0.27,1.09 -4.85,-1.219 4.85,1.219 -151.51,605.931 c 11.24,4.74 18.1,7.88 19.35,8.45 4.95,2.28 7.16,8.11 4.98,13.1 l -180.3,411.79 -0.69,1.3 c -64.01,102.08 -417.97,166.77 -457.07,173.59 v 157.09 l 0.18,0.08 0.75,0.34 c 10.27,4.71 18.88,9.35 26.57,14.28 91.42,52.93 157.83,155.72 188.57,291.14 1.12,-0.2 2.25,-0.35 3.4,-0.43 l 2.38,-0.08 h 0.01 c 7.66,0 15,2.68 21.54,7.24 9.84,6.86 18.09,17.86 24.33,31.52 6.22,13.67 10.39,30.05 11.68,47.85 0.27,3.79 0.4,7.53 0.4,11.21 -0.01,21.85 -4.62,41.63 -12.71,56.57 -4.05,7.46 -9,13.74 -14.81,18.36 -4.88,3.88 -10.44,6.57 -16.41,7.63 0.07,7.15 0.09,14.37 0.05,21.63 15.3,10.43 30.92,20.41 46.92,29.88 189.99,-145.84 404.78,-257.05 640.43,-284.52 47.78,-5.58 95.72,-7.62 143.72,-7.62 66.16,0 132.46,3.88 198.82,7.76 66.34,3.88 132.72,7.77 199,7.77 11.35,0 22.69,-0.12 34.04,-0.36 109.25,-222.33 172.89,-485.84 350.64,-658.12 88.89,-86.16 201.32,-143.94 296.09,-223.58 115.37,-96.94 201.08,-224.64 256.49,-365.2 -28.92,-69.82 -62.11,-137.73 -96.42,-202.8 -46.57,-88.32 -93.41,-176.52 -140.37,-264.641 -115.9,-217.429 -232.67,-434.41 -348.65,-651.769 -0.77,-1.449 -1.55,-2.891 -2.32,-4.34 M 824.418,639.18 c 0.09,-0.489 0.211,-0.981 0.371,-1.461 2.965,-10.918 46.266,-260.43 74.625,-425.399 0.824,-4.8 4.984,-8.308 9.856,-8.308 h 267.2 c 4.8,0 8.93,3.429 9.82,8.136 l 5.15,27.262 0.35,1.332 75.9,398.297 c 0,0.02 0.01,0.043 0.01,0.051 v 0.012 c 0,0.007 0.01,0.027 0.01,0.046 0.33,1.813 0.15,3.692 -0.53,5.422 -0.23,0.578 -0.51,1.141 -0.85,1.668 l -36.29,60.434 -41.69,69.769 c -1.8,3.02 -5.06,4.879 -8.58,4.879 H 996.254 c -34.992,26.051 -74.828,49.102 -106.238,49.102 -14.598,0 -27.383,-4.981 -37.008,-16.961 -20.871,-25.973 3.543,-46.949 42.976,-63.129 l -29.109,-43.23 -40.898,-60.59 c -1.426,-2.121 -1.969,-4.66 -1.594,-7.114 0,-0.007 0.004,-0.007 0.004,-0.007 0.004,-0.02 0.004,-0.039 0.008,-0.059 0,-0.012 0.003,-0.023 0.003,-0.031 0.004,-0.012 0.004,-0.031 0.008,-0.051 0.004,-0.012 0.004,-0.02 0.008,-0.039 0,-0.012 0.004,-0.02 0.004,-0.031"
         style="fill:#b888cb;fill-opacity:1;fill-rule:nonzero;stroke:none"
         id="path16" /><path
         d="m 3918.78,790.031 c 0,0 174.8,-98.582 171.9,-34.359 -2.59,57.519 -138.46,39.558 -166.76,35.187 -3.29,-0.507 -5.14,-0.828 -5.14,-0.828"
         style="fill:#623a9f;fill-opacity:1;fill-rule:nonzero;stroke:none"
         id="path18" /><path
         d="m 3920.54,792.141 c 0,0 98.56,174.8 34.34,171.898 -64.21,-2.898 -34.34,-171.898 -34.34,-171.898"
         style="fill:#623a9f;fill-opacity:1;fill-rule:nonzero;stroke:none"
         id="path20" /><path
         d="m 3809.6,713.211 c 0,0 174.79,-98.57 171.89,-34.352 -2.9,64.211 -171.89,34.352 -171.89,34.352"
         style="fill:#623a9f;fill-opacity:1;fill-rule:nonzero;stroke:none"
         id="path22" /><path
         d="m 3809.06,712.93 c 0,0 98.57,174.789 34.36,171.89 -64.22,-2.898 -34.36,-171.89 -34.36,-171.89"
         style="fill:#623a9f;fill-opacity:1;fill-rule:nonzero;stroke:none"
         id="path24" /><path
         d="m 3722.12,636.539 c 0,0 153.35,-86.48 150.8,-30.141 -2.54,56.34 -150.8,30.141 -150.8,30.141"
         style="fill:#623a9f;fill-opacity:1;fill-rule:nonzero;stroke:none"
         id="path26" /><path
         d="m 3722.7,635.109 c 0,0 86.47,153.36 30.13,150.813 -56.34,-2.543 -30.13,-150.813 -30.13,-150.813"
         style="fill:#623a9f;fill-opacity:1;fill-rule:nonzero;stroke:none"
         id="path28" /><path
         d="m 3644.76,552.988 c 0,0 152.94,-61.847 143.78,-9.808 -9.16,52.05 -143.78,9.808 -143.78,9.808"
         style="fill:#623a9f;fill-opacity:1;fill-rule:nonzero;stroke:none"
         id="path30" /><path
         d="m 3647.16,550.82 c 0,0 61.86,152.942 9.81,143.782 -52.05,-9.161 -9.81,-143.782 -9.81,-143.782"
         style="fill:#623a9f;fill-opacity:1;fill-rule:nonzero;stroke:none"
         id="path32" /><path
         d="m 3578.29,462.398 c 0,0 163.74,-20.226 141.44,27.684 -22.31,47.906 -141.44,-27.684 -141.44,-27.684"
         style="fill:#623a9f;fill-opacity:1;fill-rule:nonzero;stroke:none"
         id="path34" /><path
         d="m 3580.36,462.57 c 0,0 20.23,163.731 -27.68,141.43 -47.91,-22.301 27.68,-141.43 27.68,-141.43"
         style="fill:#623a9f;fill-opacity:1;fill-rule:nonzero;stroke:none"
         id="path36" /><path
         d="m 3526.13,374.68 c 0,0 141.97,-17.532 122.63,24.011 -19.34,41.539 -122.63,-24.011 -122.63,-24.011"
         style="fill:#623a9f;fill-opacity:1;fill-rule:nonzero;stroke:none"
         id="path38" /><path
         d="m 3529.72,373.91 c 0,0 17.53,141.969 -24.01,122.629 -41.54,-19.348 24.01,-122.629 24.01,-122.629"
         style="fill:#623a9f;fill-opacity:1;fill-rule:nonzero;stroke:none"
         id="path40" /><path
         d="m 3491.3,304.16 c 0,0 121.24,-14.969 104.73,20.488 C 3579.5,360.129 3491.3,304.16 3491.3,304.16"
         style="fill:#623a9f;fill-opacity:1;fill-rule:nonzero;stroke:none"
         id="path42" /><path
         d="m 3495.01,302.969 c 0,0 14.97,121.25 -20.51,104.722 -35.47,-16.511 20.51,-104.722 20.51,-104.722"
         style="fill:#623a9f;fill-opacity:1;fill-rule:nonzero;stroke:none"
         id="path44" /><path
         d="m 3911.03,784.719 c 0,0 192.27,78.652 172,114.32 -20.28,35.66 -172,-114.32 -172,-114.32"
         style="fill:#623a9f;fill-opacity:1;fill-rule:nonzero;stroke:none"
         id="path46" /><path
         d="M 3946.77,813.5 C 3946.48,813.352 3840.33,758.039 3723.04,643.148 3605.78,528.281 3477.31,353.711 3433.02,115.211 l 9.84,-1.832 c 43.79,235.891 170.89,408.711 287.18,522.633 58.13,56.949 113.54,99.148 154.38,127.09 20.43,13.957 37.2,24.367 48.86,31.269 5.83,3.449 10.37,6.027 13.45,7.738 3.08,1.7 4.66,2.52 4.66,2.52 l -4.62,8.871"
         style="fill:#623a9f;fill-opacity:1;fill-rule:nonzero;stroke:none"
         id="path48" /><path
         d="m 861.34,1295.89 c 0,0 -346.906,-3.7 -289.016,91.17 51.852,84.96 242.703,-55.44 281.934,-85.63 4.57,-3.51 7.082,-5.54 7.082,-5.54"
         style="fill:#623a9f;fill-opacity:1;fill-rule:nonzero;stroke:none"
         id="path50" /><path
         d="m 860.453,1300.55 c 0,0 -3.699,346.91 91.156,289.02 94.861,-57.89 -91.156,-289.02 -91.156,-289.02"
         style="fill:#623a9f;fill-opacity:1;fill-rule:nonzero;stroke:none"
         id="path52" /><path
         d="m 962.754,1088.58 c 0,0 -346.899,-3.7 -289.016,91.16 57.887,94.86 289.016,-91.16 289.016,-91.16"
         style="fill:#623a9f;fill-opacity:1;fill-rule:nonzero;stroke:none"
         id="path54" /><path
         d="m 963.324,1087.7 c 0,0 -3.695,346.9 91.166,289.01 94.86,-57.89 -91.166,-289.01 -91.166,-289.01"
         style="fill:#623a9f;fill-opacity:1;fill-rule:nonzero;stroke:none"
         id="path56" /><path
         d="m 1031.4,899.559 c 0,0 -304.345,-3.25 -253.556,79.972 50.785,83.219 253.556,-79.972 253.556,-79.972"
         style="fill:#623a9f;fill-opacity:1;fill-rule:nonzero;stroke:none"
         id="path58" /><path
         d="m 1029.33,897.891 c 0,0 -3.25,304.329 79.98,253.549 83.22,-50.79 -79.98,-253.549 -79.98,-253.549"
         style="fill:#623a9f;fill-opacity:1;fill-rule:nonzero;stroke:none"
         id="path60" /><path
         d="m 1078.99,708.559 c 0,0 -283.217,33.691 -225.982,104.902 57.234,71.219 225.982,-104.902 225.982,-104.902"
         style="fill:#623a9f;fill-opacity:1;fill-rule:nonzero;stroke:none"
         id="path62" /><path
         d="m 1073.54,707.25 c 0,0 33.69,283.219 104.9,225.98 71.21,-57.23 -104.9,-225.98 -104.9,-225.98"
         style="fill:#623a9f;fill-opacity:1;fill-rule:nonzero;stroke:none"
         id="path64" /><path
         d="m 868.684,1281.39 c 0,0 -225.762,279.32 -165.332,316.46 60.433,37.15 165.332,-316.46 165.332,-316.46"
         style="fill:#623a9f;fill-opacity:1;fill-rule:nonzero;stroke:none"
         id="path66" /><path
         d="m 827.152,1347.21 c 0.004,0 1.043,-1.56 3.051,-4.71 30.121,-47.17 272.567,-443.711 272.517,-964.168 0,-3.312 -0.01,-6.633 -0.03,-9.953 -0.02,-2.77 2.21,-5.02 4.97,-5.027 2.76,-0.02 5.01,2.207 5.03,4.968 0.02,3.34 0.03,6.68 0.03,10.012 -0.06,558.508 -277.001,973.988 -277.247,974.428 -1.532,2.3 -4.633,2.92 -6.93,1.39 -2.301,-1.53 -2.922,-4.64 -1.391,-6.94"
         style="fill:#623a9f;fill-opacity:1;fill-rule:nonzero;stroke:none"
         id="path68" /><path
         d="m 3783.68,2361.26 c 0,0 201.35,-282.51 243.91,-179.86 38.12,91.96 -187.76,163.48 -235.27,177.4 -5.53,1.62 -8.64,2.46 -8.64,2.46"
         style="fill:#623a9f;fill-opacity:1;fill-rule:nonzero;stroke:none"
         id="path70" /><path
         d="m 3787.97,2363.29 c 0,0 282.51,201.34 179.86,243.91 -102.66,42.55 -179.86,-243.91 -179.86,-243.91"
         style="fill:#623a9f;fill-opacity:1;fill-rule:nonzero;stroke:none"
         id="path72" /><path
         d="m 3556.41,2321.1 c 0,0 201.35,-282.51 243.91,-179.85 42.56,102.65 -243.91,179.85 -243.91,179.85"
         style="fill:#623a9f;fill-opacity:1;fill-rule:nonzero;stroke:none"
         id="path74" /><path
         d="m 3555.36,2321.05 c 0,0 282.51,201.34 179.85,243.9 -102.64,42.56 -179.85,-243.9 -179.85,-243.9"
         style="fill:#623a9f;fill-opacity:1;fill-rule:nonzero;stroke:none"
         id="path76" /><path
         d="m 3363.22,2265.23 c 0,0 176.65,-247.85 213.99,-157.79 37.33,90.06 -213.99,157.79 -213.99,157.79"
         style="fill:#623a9f;fill-opacity:1;fill-rule:nonzero;stroke:none"
         id="path78" /><path
         d="m 3363.1,2262.58 c 0,0 247.85,176.64 157.79,213.98 -90.07,37.34 -157.79,-213.98 -157.79,-213.98"
         style="fill:#623a9f;fill-opacity:1;fill-rule:nonzero;stroke:none"
         id="path80" /><path
         d="m 3180.85,2191.19 c 0,0 194.05,-209.03 217.88,-120.82 23.84,88.19 -217.88,120.82 -217.88,120.82"
         style="fill:#623a9f;fill-opacity:1;fill-rule:nonzero;stroke:none"
         id="path82" /><path
         d="m 3183,2186.01 c 0,0 209.02,194.05 120.83,217.89 -88.2,23.84 -120.83,-217.89 -120.83,-217.89"
         style="fill:#623a9f;fill-opacity:1;fill-rule:nonzero;stroke:none"
         id="path84" /><path
         d="m 3010.35,2098.1 c 0,0 241.5,-151.75 241.72,-60.39 0.22,91.37 -241.72,60.39 -241.72,60.39"
         style="fill:#623a9f;fill-opacity:1;fill-rule:nonzero;stroke:none"
         id="path86" /><path
         d="m 3013.72,2096.85 c 0,0 151.75,241.5 60.38,241.72 -91.36,0.23 -60.38,-241.72 -60.38,-241.72"
         style="fill:#623a9f;fill-opacity:1;fill-rule:nonzero;stroke:none"
         id="path88" /><path
         d="m 2864.37,1999.05 c 0,0 209.37,-131.56 209.57,-52.35 0.18,79.2 -209.57,52.35 -209.57,52.35"
         style="fill:#623a9f;fill-opacity:1;fill-rule:nonzero;stroke:none"
         id="path90" /><path
         d="m 2869.4,1995.22 c 0,0 131.57,209.38 52.36,209.56 -79.21,0.2 -52.36,-209.56 -52.36,-209.56"
         style="fill:#623a9f;fill-opacity:1;fill-rule:nonzero;stroke:none"
         id="path92" /><path
         d="m 2758.1,1914.19 c 0,0 178.81,-112.37 178.98,-44.72 0.17,67.66 -178.98,44.72 -178.98,44.72"
         style="fill:#623a9f;fill-opacity:1;fill-rule:nonzero;stroke:none"
         id="path94" /><path
         d="m 2763.04,1909.61 c 0,0 112.36,178.81 44.71,178.98 -67.65,0.17 -44.71,-178.98 -44.71,-178.98"
         style="fill:#623a9f;fill-opacity:1;fill-rule:nonzero;stroke:none"
         id="path96" /><path
         d="m 3767.64,2358.66 c 0,0 358.69,-17.92 353.11,52.8 -5.57,70.71 -353.11,-52.8 -353.11,-52.8"
         style="fill:#623a9f;fill-opacity:1;fill-rule:nonzero;stroke:none"
         id="path98" /><path
         d="m 3844.87,2373.85 c -0.33,-0.01 -206.76,-8.72 -474.15,-102.38 -267.35,-93.66 -595.78,-272.35 -839.48,-612.46 l 8.13,-5.82 c 242.14,337.94 568.59,515.63 834.66,608.84 133.02,46.6 250.92,72.07 335.52,85.88 42.3,6.9 76.28,10.89 99.66,13.16 11.69,1.13 20.73,1.83 26.84,2.25 6.1,0.41 9.23,0.54 9.24,0.54 l -0.42,9.99"
         style="fill:#623a9f;fill-opacity:1;fill-rule:nonzero;stroke:none"
         id="path100" /><path
         d="m 1983.91,1561.13 c 12.53,5.44 -91.21,310.22 -97.96,326.35 -100.62,240.78 -250.78,436.78 -432.61,563.66 -335.9,234.4 -728.266,210.52 -1105.121,120.38 46.726,-1.12 89.015,-30.52 127.234,-63.69 250.051,-216.96 382.699,-612.8 640.477,-814.28 249.94,-195.34 576.48,-257.98 867.98,-132.42"
         style="fill:#623a9f;fill-opacity:1;fill-rule:nonzero;stroke:none"
         id="path102" /><path
         d="m 1838.92,1629.69 c -0.15,0.25 -116.15,199.91 -336.31,413.39 -220.15,213.45 -544.602,440.85 -961.661,495.8 -2.734,0.36 -5.25,-1.57 -5.609,-4.31 -0.36,-2.73 1.566,-5.24 4.305,-5.61 414.093,-54.52 736.785,-280.5 956.005,-493.06 109.6,-106.26 193.3,-209.13 249.57,-285.41 28.14,-38.14 49.42,-69.63 63.66,-91.57 7.12,-10.97 12.48,-19.55 16.05,-25.38 3.58,-5.83 5.34,-8.87 5.35,-8.88 1.38,-2.39 4.44,-3.2 6.83,-1.81 2.39,1.39 3.2,4.45 1.81,6.84"
         style="fill:#ffffff;fill-opacity:1;fill-rule:nonzero;stroke:none"
         id="path104" /><path
         d="m 1077.52,2555.92 82.23,-246.2 -411.469,-17.53 c -2.758,-0.12 -4.898,-2.45 -4.781,-5.21 0.117,-2.76 2.449,-4.9 5.211,-4.78 l 418.089,17.82 c 1.57,0.06 3.02,0.86 3.91,2.16 0.89,1.29 1.12,2.93 0.62,4.41 l -84.32,252.5 c -0.88,2.61 -3.71,4.03 -6.33,3.15 -2.62,-0.87 -4.03,-3.7 -3.16,-6.32"
         style="fill:#ffffff;fill-opacity:1;fill-rule:nonzero;stroke:none"
         id="path106" /><path
         d="m 1397.49,2346.2 80.53,-285.79 -345.33,-18.06 c -2.75,-0.14 -4.87,-2.49 -4.73,-5.25 0.15,-2.76 2.5,-4.88 5.26,-4.73 l 351.57,18.39 c 1.51,0.07 2.92,0.84 3.8,2.08 0.88,1.23 1.16,2.8 0.75,4.26 l -82.23,291.81 c -0.75,2.66 -3.51,4.21 -6.17,3.46 -2.65,-0.75 -4.2,-3.51 -3.45,-6.17"
         style="fill:#ffffff;fill-opacity:1;fill-rule:nonzero;stroke:none"
         id="path108" /><path
         d="m 1682.22,2078.29 44.13,-294.77 -349.67,31.98 c -2.75,0.25 -5.18,-1.77 -5.43,-4.52 -0.26,-2.75 1.77,-5.18 4.52,-5.44 l 356.02,-32.55 c 1.53,-0.14 3.03,0.43 4.09,1.54 1.05,1.12 1.53,2.66 1.31,4.18 l -45.08,301.06 c -0.41,2.73 -2.95,4.61 -5.68,4.2 -2.73,-0.4 -4.62,-2.95 -4.21,-5.68"
         style="fill:#ffffff;fill-opacity:1;fill-rule:nonzero;stroke:none"
         id="path110" /><path
         d="m 2088.71,1637.56 -57.32,-145.48 -378.28,-960.959 -39.31,142.418 -41.92,438.671 161.68,477.96 355.15,47.39"
         style="fill:#f89b32;fill-opacity:1;fill-rule:nonzero;stroke:none"
         id="path112" /><path
         d="m 2088.71,1637.56 -4.66,1.84 -57.31,-145.49 -372.8,-947.019 -35.21,127.558 -41.77,437.181 160.34,474 352.07,46.98 -0.66,4.95 -4.66,1.84 4.66,-1.84 -0.67,4.96 -358.22,-47.8 -163.02,-481.92 42.06,-440.171 43.42,-157.277 383.76,974.888 60.44,153.41 -8.44,-1.13 0.67,-4.96"
         style="fill:#5e379d;fill-opacity:1;fill-rule:nonzero;stroke:none"
         id="path114" /><path
         d="m 1653.94,546.891 -35.21,127.558 -0.78,8.192 363.11,795.089 c 1.74,-0.2 3.48,-0.39 5.22,-0.57 2.02,-9.8 4.1,-20.05 6.17,-30.75 1.14,-5.71 2.22,-11.1 3.3,-16.69 l 1.13,-5.98 c 0.24,-1.28 0.48,-2.57 0.72,-3.85 L 1653.94,546.891"
         style="fill:#f68c22;fill-opacity:1;fill-rule:nonzero;stroke:none"
         id="path116" /><path
         d="m 1653.11,531.121 -39.31,142.418 4.15,9.102 0.78,-8.192 35.21,-127.558 343.66,872.999 c 0.58,-3.07 1.16,-6.16 1.73,-9.27 L 1653.11,531.121"
         style="fill:#6d1c69;fill-opacity:1;fill-rule:nonzero;stroke:none"
         id="path118" /><path
         d="m 3380.56,941.73 -49.96,-251.41 -31.61,-159.199 -378.28,960.959 -57.43,145.48 355.14,-47.39 162.14,-648.44"
         style="fill:#f89b32;fill-opacity:1;fill-rule:nonzero;stroke:none"
         id="path120" /><path
         d="m 3380.56,941.73 -4.91,0.981 -49.96,-251.422 -28.28,-142.488 -372.04,945.109 -54.31,137.57 343.33,-45.81 161.32,-645.15 4.85,1.21 -4.91,0.981 4.91,-0.981 4.85,1.219 -162.97,651.731 -366.94,48.97 60.56,-153.41 384.52,-976.799 34.92,175.911 50.18,252.507 -0.27,1.09 -4.85,-1.219"
         style="fill:#5e379d;fill-opacity:1;fill-rule:nonzero;stroke:none"
         id="path122" /><path
         d="m 3297.41,548.801 -341.8,868.279 c 4.05,20.25 8.52,40.12 13.45,59.35 0.82,0.08 1.65,0.15 2.47,0.23 l 355.51,-778.558 -1.35,-6.813 -28.28,-142.488"
         style="fill:#f68c22;fill-opacity:1;fill-rule:nonzero;stroke:none"
         id="path124" /><path
         d="m 3298.99,531.121 -345.17,876.859 c 0.59,3.04 1.18,6.07 1.79,9.1 l 341.8,-868.279 28.28,142.488 1.35,6.813 3.56,-7.782 -31.61,-159.199"
         style="fill:#6d1c69;fill-opacity:1;fill-rule:nonzero;stroke:none"
         id="path126" /><path
         d="m 2053.77,936.809 c -1.31,0 -2.57,0.523 -3.51,1.441 -0.95,0.941 -1.49,2.219 -1.49,3.559 0,8.05 -0.2,16.179 -0.5,24.222 l -0.28,11.949 -0.29,7.04 c -0.18,4.199 -0.36,8.359 -0.62,12.468 -0.51,9.372 -1.01,18.692 -1.41,28.002 -1.19,16.63 -2.48,33.31 -3.98,49.77 l -0.22,2.54 c -0.17,1.81 -0.33,3.59 -0.4,5.43 l -0.3,11.03 -0.26,5.88 c -0.18,4.31 -0.36,8.56 -0.63,12.86 l -1.51,27.95 c -1.09,16.69 -2.39,33.26 -3.88,49.82 l -1.2,14.32 -1.69,16.07 c -0.54,5.42 -1.02,10.27 -1.6,14.95 l -0.73,6.74 c -0.63,5.76 -1.24,11.44 -1.97,17.14 l -0.78,5.77 -1.81,14.85 c -0.6,4.85 -1.19,9.61 -1.89,14.27 l -0.39,2.73 c -0.57,3.99 -1.13,7.91 -1.62,11.77 l -2.79,18.88 c -0.43,3.01 -0.86,6.02 -1.38,8.99 -0.71,4.78 -1.41,9.23 -2.2,13.68 -2.11,13.59 -4.3,26.76 -6.5,39.64 -0.6,3.68 -1.19,7.13 -1.88,10.69 -1.38,8.09 -2.86,15.95 -4.32,23.68 l -1.09,5.76 c -1.09,5.65 -2.19,11.14 -3.29,16.63 -2.34,12.07 -4.67,23.54 -6.93,34.44 -131.88,12.66 -277.98,79.42 -279.46,80.1 -2.47,1.14 -3.58,4.05 -2.48,6.54 l 180.3,411.8 c 40.76,65 201.71,115.08 329.61,145.76 64.22,15.3 115.51,24.62 126.62,26.59 l 2.01,0.45 132.19,-12.02 135.95,12.02 2.18,-0.49 c 26.07,-4.46 391.58,-69.47 455.66,-171.65 l 180.64,-412.46 c 1.1,-2.49 -0.01,-5.4 -2.49,-6.54 -1.52,-0.7 -152.57,-69.67 -286.05,-80.76 -57.03,-219.06 -53.68,-523.071 -53.64,-526.122 0.03,-2.769 -2.17,-5.027 -4.93,-5.066 l -125.59,-1.91 -189.3,-2.992 -220.61,-3.399 -26.11,-0.312 -291.16,-4.5"
         style="fill:#f6df53;fill-opacity:1;fill-rule:nonzero;stroke:none"
         id="path128" /><path
         d="m 2346.96,2158.01 c -1.24,0 -2.45,-0.23 -3.58,-0.66 -13.05,-2.33 -63.65,-11.63 -126.13,-26.5 -128.83,-30.92 -291.05,-81.58 -332.35,-147.32 l -0.69,-1.31 -180.3,-411.79 c -2.19,-4.99 0.03,-10.81 4.97,-13.1 6,-2.76 145.81,-66.64 277.4,-80.17 2.02,-9.8 4.1,-20.05 6.17,-30.75 1.14,-5.71 2.22,-11.1 3.3,-16.69 l 1.13,-5.98 c 1.43,-7.61 2.9,-15.34 4.23,-23.21 0.72,-3.72 1.3,-7.12 1.89,-10.72 2.2,-12.93 4.39,-26.08 6.49,-39.53 0.82,-4.63 1.5,-9.03 2.18,-13.64 0.55,-3.15 0.97,-6.09 1.39,-9.02 l 0.72,-4.91 1.05,-7.1 1.05,-7.07 c 0.48,-3.84 1.07,-7.95 1.67,-12.13 l 0.32,-2.21 c 0.69,-4.67 1.28,-9.39 1.87,-14.2 l 0.6,-4.89 1.2,-9.79 c 0.18,-1.22 0.29,-2.13 0.41,-3.04 0.13,-1.03 0.27,-2.08 0.43,-3.15 0.68,-5.37 1.28,-10.98 1.9,-16.66 l 0.75,-6.86 c 0.56,-4.56 1.01,-9.18 1.47,-13.74 l 0.12,-1.15 c 0.3,-2.78 0.58,-5.45 0.85,-8.13 0.28,-2.72 0.56,-5.46 0.86,-8.18 l 0.6,-7.17 0.57,-6.85 c 1.51,-16.7 2.82,-33.44 3.89,-49.83 l 1.49,-27.78 c 0.28,-4.32 0.45,-8.5 0.63,-12.71 l 0.27,-6.13 0.22,-8.01 0.07,-2.79 c 0.08,-2 0.24,-3.84 0.41,-5.69 l 0.22,-2.5 c 1.35,-14.88 2.65,-31.16 3.99,-49.95 0.39,-9.06 0.89,-18.39 1.39,-27.73 0.28,-4.258 0.45,-8.461 0.63,-12.688 l 0.27,-6.141 0.29,-12.461 c 0.34,-9.101 0.5,-16.96 0.5,-24.171 0,-2.668 1.07,-5.239 2.98,-7.129 1.87,-1.828 4.39,-2.871 7.02,-2.871 h 0.15 l 175.9,2.711 115.2,1.789 26.06,0.312 220.64,3.399 189.31,2.992 125.59,1.91 c 5.51,0.078 9.92,4.609 9.85,10.117 -0.04,3.043 -3.33,303.311 52.59,521.391 133.31,12.01 277.99,78.05 284.19,80.9 4.95,2.28 7.16,8.11 4.98,13.1 l -180.3,411.79 -0.69,1.3 c -65.07,103.77 -429.78,168.9 -458.75,173.88 -1.08,0.4 -2.22,0.61 -3.38,0.61 l -0.82,-0.04 -135.51,-11.92 -127.91,11.62 -2.91,0.3 -1,0.04 m 268.21,-10 v -0.2 c 1.3,-0.2 389.2,-66.9 453.6,-169.6 l 180.3,-411.8 c 0,0 -152.9,-70.4 -287.9,-80.59 -58.81,-222.5 -54.71,-530.898 -54.71,-530.898 l -125.59,-1.91 -189.3,-2.992 -220.6,-3.399 -26.1,-0.301 -115.2,-1.8 -175.9,-2.711 c 0,8.113 -0.2,16.3 -0.5,24.41 -0.1,4.293 -0.2,8.59 -0.3,12.691 -0.3,6.399 -0.5,12.711 -0.9,18.899 -0.5,9.311 -1,18.601 -1.4,27.901 -1.2,16.81 -2.5,33.5 -4,50 -0.21,2.61 -0.5,5.11 -0.6,7.7 -0.1,3.71 -0.2,7.5 -0.3,11 -0.3,6.41 -0.5,12.61 -0.9,18.91 -0.5,9.29 -1,18.59 -1.5,27.9 -1.1,16.79 -2.4,33.4 -3.9,50 -0.4,4.79 -0.8,9.49 -1.2,14.29 -0.6,5.4 -1.1,10.8 -1.7,16.21 -0.5,5 -1,10.09 -1.6,14.99 -0.9,8.1 -1.7,16 -2.7,23.9 -0.3,2 -0.5,3.91 -0.81,5.9 -0.59,5 -1.19,9.8 -1.79,14.71 -0.6,4.89 -1.2,9.69 -1.9,14.39 -0.7,4.9 -1.4,9.7 -2,14.41 -0.7,4.69 -1.4,9.5 -2.1,14.2 -0.7,4.6 -1.3,9.29 -2.1,13.89 -0.7,4.7 -1.4,9.2 -2.2,13.7 -2.1,13.5 -4.3,26.7 -6.5,39.6 -0.6,3.7 -1.2,7.2 -1.9,10.8 -1.7,10 -3.6,19.81 -5.4,29.41 -1.1,5.69 -2.2,11.19 -3.3,16.7 -2.6,13.4 -5.2,26.09 -7.7,38.09 -133.5,11.8 -281.5,80 -281.5,80 l 180.3,411.8 c 40.2,64 206.6,114.21 326.2,142.9 71.8,17.1 126.8,26.6 127.3,26.7 l 0.1,0.2 3,-0.3 128.8,-11.7 136.4,12"
         style="fill:#5e379d;fill-opacity:1;fill-rule:nonzero;stroke:none"
         id="path130" /><path
         d="m 2591.57,950.02 -220.6,-3.399 -26.1,-0.312 -291.1,-4.5 c 0,8.113 -0.2,16.3 -0.5,24.41 -0.1,4.293 -0.2,8.59 -0.3,12.691 -0.3,6.399 -0.5,12.711 -0.9,18.899 -0.5,9.311 -1,18.601 -1.4,27.901 -1.2,16.81 -2.5,33.51 -4,50 -0.21,2.61 -0.5,5.11 -0.6,7.7 -0.1,3.71 -0.2,7.5 -0.3,11 -0.3,6.41 -0.5,12.61 -0.9,18.91 -0.5,9.29 -1,18.59 -1.5,27.9 -1.1,16.79 -2.4,33.4 -3.9,50 -0.4,4.79 -0.8,9.49 -1.2,14.29 -0.6,5.4 -1.1,10.8 -1.7,16.21 -0.5,5 -1,10.09 -1.6,15 -0.9,8.09 -1.7,15.99 -2.7,23.89 -0.3,2 -0.5,3.91 -0.81,5.9 -0.59,5 -1.19,9.8 -1.79,14.71 -0.6,4.89 -1.2,9.69 -1.9,14.39 -0.7,4.9 -1.4,9.7 -2,14.41 -0.7,4.69 -1.4,9.5 -2.1,14.2 -0.7,4.59 -1.3,9.29 -2.1,13.89 -0.7,4.7 -1.4,9.2 -2.2,13.7 -2.1,13.5 -4.3,26.7 -6.5,39.6 -0.6,3.7 -1.2,7.2 -1.9,10.8 -1.7,10 -3.6,19.81 -5.4,29.41 -1.1,5.69 -2.2,11.19 -3.3,16.7 -2.6,13.4 -5.2,26.09 -7.7,38.09 0,0 282.8,-363.89 597,-536.39"
         style="fill:#e3c727;fill-opacity:1;fill-rule:nonzero;stroke:none"
         id="path132" /><path
         d="m 2615.17,2423.91 v -302.8 c 0,0 -31.7,-23.8 -103.4,-28.1 -7,-0.4 -14.5,-0.59 -22.3,-0.59 -49.8,0 -86.6,7.89 -110.2,15.39 -21.5,6.81 -32.3,13.3 -32.3,13.3 v 270.6 l 268.2,32.2"
         style="fill:#f89b32;fill-opacity:1;fill-rule:nonzero;stroke:none"
         id="path134" /><path
         d="m 2489.47,2092.42 c -49.8,0 -86.6,7.89 -110.2,15.39 -13.56,4.29 -22.86,8.46 -27.89,10.95 0.36,0.69 0.57,1.48 0.57,2.31 v 194.33 c 16.13,-7.13 33.18,-13.06 50.79,-17.66 16.03,-4.26 32.42,-7.31 49.01,-9.14 -2.42,-47.08 1.43,-139.23 60.02,-195.59 -7,-0.4 -14.5,-0.59 -22.3,-0.59"
         style="fill:#f68c22;fill-opacity:1;fill-rule:nonzero;stroke:none"
         id="path136" /><path
         d="m 2351.95,2121.07 v 266.25 l 258.22,30.99 v -297.24 c 0,-2.76 2.23,-5 5,-5 2.76,0 5,2.24 5,5 v 302.88 c 0,1.43 -0.62,2.79 -1.69,3.74 -1.07,0.95 -2.49,1.39 -3.91,1.22 l -268.22,-32.19 c -2.51,-0.3 -4.4,-2.43 -4.4,-4.97 v -270.68 c 0,-2.76 2.24,-5 5,-5 2.76,0 5,2.24 5,5"
         style="fill:#5e379d;fill-opacity:1;fill-rule:nonzero;stroke:none"
         id="path138" /><path
         d="m 2157.92,2713.45 c 3.38,-47.14 -15.57,-86.92 -42.33,-88.85 -26.76,-1.92 -51.2,34.75 -54.58,81.9 -3.39,47.15 15.56,86.93 42.32,88.85 26.76,1.92 51.2,-34.74 54.59,-81.9"
         style="fill:#f89b32;fill-opacity:1;fill-rule:nonzero;stroke:none"
         id="path140" /><path
         d="m 2157.92,2713.45 -4.99,-0.35 c 0.26,-3.55 0.38,-7.05 0.38,-10.49 0.01,-20.42 -4.4,-38.75 -11.5,-51.8 -3.54,-6.53 -7.73,-11.73 -12.24,-15.3 -4.52,-3.57 -9.28,-5.55 -14.34,-5.92 l -1.65,-0.06 c -5.32,0 -10.62,1.82 -15.85,5.45 -7.83,5.42 -15.27,14.99 -20.94,27.45 -5.67,12.46 -9.6,27.75 -10.8,44.42 -0.25,3.55 -0.38,7.06 -0.38,10.51 -0.01,20.41 4.4,38.74 11.5,51.79 3.54,6.53 7.73,11.72 12.24,15.29 4.52,3.58 9.28,5.55 14.34,5.93 l 1.65,0.05 c 5.32,0 10.62,-1.82 15.85,-5.44 7.83,-5.42 15.27,-15 20.94,-27.46 5.68,-12.46 9.61,-27.75 10.8,-44.43 l 4.99,0.36 4.99,0.36 c -1.72,23.73 -8.54,44.95 -18.58,60.57 -5.02,7.81 -10.87,14.24 -17.43,18.81 -6.55,4.56 -13.89,7.24 -21.56,7.23 l -2.37,-0.08 c -7.28,-0.52 -14.03,-3.45 -19.83,-8.06 -8.72,-6.94 -15.5,-17.55 -20.22,-30.43 -4.7,-12.89 -7.3,-28.11 -7.31,-44.49 0,-3.69 0.14,-7.43 0.41,-11.22 1.71,-23.73 8.53,-44.94 18.57,-60.57 5.02,-7.81 10.87,-14.24 17.43,-18.8 6.54,-4.56 13.89,-7.25 21.56,-7.24 l 2.37,0.08 c 7.28,0.52 14.03,3.45 19.84,8.07 8.72,6.94 15.5,17.55 20.21,30.43 4.7,12.89 7.31,28.12 7.31,44.5 0,3.68 -0.13,7.42 -0.4,11.2 l -4.99,-0.36"
         style="fill:#5e379d;fill-opacity:1;fill-rule:nonzero;stroke:none"
         id="path142" /><path
         d="m 2112.11,2697.68 c -0.41,0.54 -0.74,1.19 -0.97,1.95 -1.86,6.19 -3.68,13.15 -8.16,18.06 -2.45,2.69 -6.23,4.77 -9.85,4.77 -2.08,0 -4.11,-0.68 -5.8,-2.33 -1.21,-1.18 -2.57,-1.67 -3.88,-1.67 -4.51,0 -8.51,5.84 -4.34,9.9 3.96,3.85 9.02,5.65 14.18,5.65 4.26,0 8.58,-1.22 12.41,-3.53 1.21,-0.74 2.34,-1.56 3.38,-2.46 0.84,-10.24 1.84,-20.35 3.03,-30.34"
         style="fill:#f46923;fill-opacity:1;fill-rule:nonzero;stroke:none"
         id="path144" /><path
         d="m 2797.68,2713.45 c -3.39,-47.14 15.56,-86.92 42.32,-88.85 26.77,-1.92 51.2,34.75 54.59,81.9 3.39,47.15 -15.57,86.93 -42.32,88.85 -26.76,1.92 -51.21,-34.74 -54.59,-81.9"
         style="fill:#f89b32;fill-opacity:1;fill-rule:nonzero;stroke:none"
         id="path146" /><path
         d="m 2797.68,2713.45 -4.99,0.36 c -0.27,-3.78 -0.41,-7.53 -0.41,-11.21 0.02,-21.84 4.62,-41.63 12.71,-56.57 4.06,-7.46 9,-13.73 14.82,-18.35 5.8,-4.62 12.55,-7.55 19.83,-8.07 l 2.38,-0.08 c 7.66,-0.01 15.01,2.68 21.55,7.24 9.84,6.86 18.09,17.86 24.33,31.52 6.22,13.67 10.39,30.05 11.68,47.85 0.27,3.79 0.4,7.53 0.4,11.21 -0.01,21.85 -4.62,41.63 -12.71,56.57 -4.05,7.46 -9,13.74 -14.81,18.36 -5.8,4.61 -12.56,7.54 -19.84,8.06 l -2.37,0.08 c -7.66,0.01 -15.01,-2.67 -21.55,-7.23 -9.84,-6.86 -18.09,-17.87 -24.33,-31.53 -6.23,-13.66 -10.4,-30.05 -11.68,-47.85 l 4.99,-0.36 4.98,-0.36 c 1.59,22.24 8.07,42.01 17.01,55.88 4.46,6.94 9.52,12.39 14.73,16.01 5.24,3.62 10.54,5.44 15.85,5.44 l 1.66,-0.05 c 5.06,-0.38 9.81,-2.35 14.33,-5.93 6.77,-5.34 12.8,-14.39 17.03,-26.02 4.25,-11.62 6.71,-25.75 6.71,-41.07 0,-3.44 -0.12,-6.95 -0.38,-10.5 -1.58,-22.23 -8.07,-42 -17,-55.87 -4.46,-6.94 -9.52,-12.38 -14.73,-16 -5.24,-3.63 -10.54,-5.45 -15.85,-5.45 l -1.66,0.06 c -5.06,0.37 -9.82,2.35 -14.34,5.92 -6.76,5.34 -12.8,14.39 -17.03,26.02 -4.25,11.62 -6.71,25.76 -6.71,41.07 0,3.44 0.13,6.95 0.38,10.49 l -4.98,0.36"
         style="fill:#5e379d;fill-opacity:1;fill-rule:nonzero;stroke:none"
         id="path148" /><path
         d="m 2851.44,2716.29 c 0.51,5.21 0.98,10.44 1.4,15.71 3.04,1.32 6.27,2.01 9.46,2.01 5.16,0 10.23,-1.8 14.19,-5.65 4.17,-4.06 0.16,-9.9 -4.35,-9.9 -1.31,0 -2.67,0.49 -3.88,1.67 -1.69,1.65 -3.72,2.33 -5.79,2.33 -3.63,0 -7.41,-2.08 -9.86,-4.77 -0.41,-0.45 -0.8,-0.92 -1.17,-1.4"
         style="fill:#f46923;fill-opacity:1;fill-rule:nonzero;stroke:none"
         id="path150" /><path
         d="m 2489.02,2291.55 c -28.87,0 -57.48,3.71 -85.04,11.03 -20.67,5.4 -40.6,12.68 -59.18,21.63 -6.84,3.25 -12.9,6.38 -18.5,9.55 -9.22,5.12 -18.81,11.16 -29.28,18.45 -83.38,58.38 -141.83,155.04 -169.04,279.53 -11.74,55.19 -17.39,115.71 -16.81,179.92 -0.42,15.46 -0.28,30.72 0.4,45.19 l 0.07,1.37 0.2,0.35 c 8.46,153.06 80.3,287.21 192.33,359.06 7.59,4.92 15.36,9.5 23.05,13.6 43.98,24.23 91.38,37.19 140.82,38.48 3.12,0.09 6.25,0.15 9.37,0.15 61.76,0 123.07,-18.87 177.3,-54.57 100.06,-65.71 171.47,-185.4 191.01,-320.16 l 0.52,-5 c 2.63,-18.49 4.23,-37.63 4.73,-56.69 0.2,-13.4 0.2,-26.55 0,-39.41 l -0.6,-18.58 c -1.57,-43.53 -5.94,-85.52 -12.98,-124.81 -27.14,-148.63 -95.54,-261.43 -192.62,-317.65 -7.29,-4.69 -15.71,-9.22 -25.52,-13.72 l -3.03,4.11 2.09,-4.54 -1.19,-0.53 c -36.37,-16.31 -75.93,-25.27 -117.49,-26.59 -3.54,-0.11 -7.08,-0.17 -10.61,-0.17"
         style="fill:#f89b32;fill-opacity:1;fill-rule:nonzero;stroke:none"
         id="path152" /><path
         d="m 2477.42,3274.86 h -0.02 c -3.16,0 -6.35,-0.05 -9.53,-0.15 -50.2,-1.32 -98.37,-14.48 -143.13,-39.14 -7.69,-4.09 -15.57,-8.75 -23.31,-13.77 -113.26,-72.62 -185.94,-208.12 -194.57,-362.65 -0.18,-0.75 -0.29,-1.59 -0.29,-2.54 -0.68,-14.08 -0.82,-29.47 -0.4,-45.26 -0.59,-64.22 5.1,-125.11 16.92,-180.62 27.49,-125.79 86.63,-223.5 171.04,-282.61 10.68,-7.41 20.41,-13.54 29.78,-18.75 5.65,-3.2 11.81,-6.38 18.77,-9.69 18.81,-9.06 39.03,-16.45 60.06,-21.94 27.94,-7.42 56.99,-11.19 86.29,-11.19 3.58,0 7.16,0.06 10.75,0.17 42.22,1.34 82.42,10.45 119.48,27.07 l 1.09,0.49 0.75,0.34 c 10.27,4.71 18.88,9.35 26.57,14.28 97.98,56.73 167.24,170.75 194.63,320.82 7.08,39.52 11.48,81.75 13.06,125.53 l 0.61,18.54 c 0.2,13.03 0.2,26.32 0,39.67 -0.51,19.39 -2.12,38.71 -4.8,57.56 l -0.46,4.43 c -19.78,136.55 -92.01,257.53 -193.25,324.02 -55.05,36.23 -117.31,55.39 -180.04,55.39 m -0.01,-10 c 62.89,0 122.4,-19.42 174.55,-53.75 97.31,-63.9 168.91,-179.39 188.81,-316.69 l 0.5,-4.8 c 2.6,-18.31 4.2,-37.21 4.7,-56.31 0.2,-13.29 0.2,-26.4 0,-39.2 -0.2,-6.19 -0.4,-12.39 -0.6,-18.5 -1.6,-44.3 -6.01,-85.59 -12.9,-124.09 -28.01,-153.41 -97.3,-260.41 -190.2,-314.2 -8.1,-5.2 -16.61,-9.61 -25.1,-13.51 l -2,-0.89 c -35.9,-16.11 -74.8,-24.91 -115.7,-26.2 -3.48,-0.12 -6.96,-0.17 -10.44,-0.17 -28.45,0 -56.58,3.65 -83.76,10.86 -19.9,5.2 -39.4,12.21 -58.3,21.3 -6.1,2.9 -12.2,6 -18.2,9.4 -9.9,5.51 -19.4,11.6 -28.9,18.21 -77.4,54.19 -138.5,146.09 -167,276.49 -11.3,53.1 -17.3,112.7 -16.7,178.8 -0.4,15.1 -0.3,30.2 0.4,45 l 0.2,0.51 c 8.2,154.4 82.5,287.3 190.1,356.29 7.4,4.8 15,9.3 22.7,13.4 42.3,23.3 89,36.6 138.6,37.9 3.08,0.09 6.17,0.15 9.24,0.15"
         style="fill:#5e379d;fill-opacity:1;fill-rule:nonzero;stroke:none"
         id="path154" /><path
         d="m 2464.12,2753.58 c 0,-0.01 0.17,-0.61 0.5,-1.81 2.32,-8.4 11.66,-44.97 11.64,-80.51 0.02,-16.78 -2.1,-33.28 -7.67,-46.28 -1.12,-2.61 -1.66,-5.34 -1.66,-8 -0.06,-9.54 7.06,-18.29 17.46,-19.29 2.64,-0.26 5.46,-0.42 8.46,-0.42 15.55,-0.01 35.7,4.22 56.75,19.28 2.25,1.6 2.77,4.72 1.17,6.97 -1.61,2.25 -4.73,2.77 -6.98,1.17 -19.34,-13.79 -37.15,-17.4 -50.94,-17.42 -2.65,0 -5.15,0.14 -7.48,0.37 -5.15,0.53 -8.37,4.58 -8.44,9.34 0.01,1.32 0.27,2.69 0.86,4.07 6.36,14.94 8.46,32.61 8.47,50.21 -0.02,42.52 -12.49,84.89 -12.55,85.13 -0.77,2.65 -3.55,4.17 -6.2,3.39 -2.65,-0.78 -4.17,-3.55 -3.39,-6.2"
         style="fill:#5e379d;fill-opacity:1;fill-rule:nonzero;stroke:none"
         id="path156" /><path
         d="m 2462,2520.65 c 0.39,-0.16 20.11,-8.69 48.05,-8.71 27.64,-0.05 63.56,8.59 95.37,42.12 1.9,2 1.82,5.16 -0.18,7.06 -2,1.91 -5.16,1.83 -7.07,-0.17 -29.82,-31.31 -62.44,-38.96 -88.12,-39.01 -12.94,0 -24.06,2 -31.89,4 -3.92,0.99 -7.01,1.99 -9.11,2.72 -1.04,0.37 -1.84,0.67 -2.36,0.88 l -0.57,0.23 -0.15,0.06 c -2.53,1.1 -5.48,-0.07 -6.57,-2.6 -1.1,-2.54 0.06,-5.48 2.6,-6.58"
         style="fill:#5e379d;fill-opacity:1;fill-rule:nonzero;stroke:none"
         id="path158" /><path
         d="m 2589.81,2862.96 0.89,0.25 c 4.24,1.16 23.26,5.92 43.99,5.91 17.62,0.04 36.15,-3.51 48.14,-14.42 2.06,-1.84 5.22,-1.68 7.07,0.37 1.84,2.05 1.68,5.22 -0.37,7.06 -15.09,13.5 -36.05,16.96 -54.84,16.99 -25.38,-0.01 -47.43,-6.5 -47.69,-6.56 -2.65,-0.78 -4.17,-3.55 -3.39,-6.2 0.77,-2.65 3.55,-4.17 6.2,-3.4"
         style="fill:#5e379d;fill-opacity:1;fill-rule:nonzero;stroke:none"
         id="path160" /><path
         d="m 2298.47,2862.96 0.89,0.25 c 4.25,1.16 23.27,5.93 44,5.91 17.62,0.04 36.14,-3.51 48.14,-14.41 2.05,-1.85 5.21,-1.69 7.06,0.36 1.85,2.05 1.68,5.21 -0.37,7.06 -15.09,13.5 -36.05,16.96 -54.83,16.99 -25.39,-0.01 -47.44,-6.5 -47.69,-6.56 -2.65,-0.78 -4.17,-3.55 -3.4,-6.2 0.78,-2.65 3.55,-4.17 6.2,-3.4"
         style="fill:#5e379d;fill-opacity:1;fill-rule:nonzero;stroke:none"
         id="path162" /><path
         d="m 2489.02,2296.55 c -16.59,0 -33.07,1.24 -49.32,3.71 -11.61,1.76 -23.11,4.15 -34.43,7.15 -19.9,5.2 -39.4,12.21 -58.3,21.3 -6.1,2.9 -12.2,6 -18.2,9.4 -9.9,5.51 -19.4,11.6 -28.9,18.21 -77.4,54.19 -138.5,146.09 -167,276.49 -10.77,50.62 -16.73,107.13 -16.74,169.55 0,3.07 0.01,6.15 0.04,9.25 v 0 0 c -0.16,5.9 -0.24,11.8 -0.24,17.68 0.01,9.17 0.21,18.3 0.64,27.32 l 0.2,0.51 c 8.2,154.4 82.5,287.3 190.1,356.29 l 27,-112.2 c 0,0 -52.16,-204.21 -55.11,-406.9 -24.72,-4.04 -45.8,-22.51 -51.93,-48.41 -8.13,-34.37 13.14,-68.82 47.51,-76.95 3.4,-0.81 6.79,-1.32 10.17,-1.57 8.6,-73.66 27.54,-140.7 62.46,-189.67 34,-47.69 83.1,-78.2 152.5,-80.99 v 0 c -3.49,-0.11 -6.97,-0.17 -10.45,-0.17"
         style="fill:#f68c22;fill-opacity:1;fill-rule:nonzero;stroke:none"
         id="path164" /><path
         d="m 2499.47,2296.72 v 0 0 0 m -59.77,3.54 c -11.61,1.76 -23.1,4.14 -34.43,7.15 -19.9,5.2 -39.4,12.21 -58.3,21.3 -6.1,2.9 -12.2,6 -18.2,9.4 -9.9,5.51 -19.4,11.6 -28.9,18.21 -77.4,54.19 -138.5,146.09 -167,276.49 -10.77,50.62 -16.73,107.13 -16.74,169.55 0.01,-62.42 5.97,-118.93 16.74,-169.55 28.5,-130.4 89.6,-222.3 167,-276.49 9.5,-6.61 19,-12.7 28.9,-18.21 6,-3.4 12.1,-6.5 18.2,-9.4 18.9,-9.09 38.4,-16.1 58.3,-21.3 11.32,-3 22.82,-5.39 34.43,-7.15 m -323.53,511.35 c -0.16,5.9 -0.24,11.8 -0.24,17.68 0,-5.88 0.08,-11.78 0.24,-17.68 v 0"
         style="fill:#6d1c69;fill-opacity:1;fill-rule:nonzero;stroke:none"
         id="path166" /><path
         d="m 2672.63,2577.24 c -4.88,0 -9.83,0.56 -14.78,1.74 -34.37,8.13 -55.64,42.58 -47.51,76.95 6.96,29.42 33.21,49.24 62.18,49.24 4.88,0 9.83,-0.56 14.78,-1.73 34.37,-8.14 55.63,-42.59 47.5,-76.96 -6.96,-29.41 -33.21,-49.24 -62.17,-49.24"
         style="fill:#f57f25;fill-opacity:1;fill-rule:nonzero;stroke:none"
         id="path168" /><path
         d="m 2289.11,2567.21 c -1.53,0 -3.06,0.06 -4.6,0.17 -4.78,40.91 -6.37,83.91 -5.75,126.93 3.36,0.55 6.78,0.83 10.24,0.83 4.88,0 9.83,-0.56 14.78,-1.74 34.37,-8.12 55.64,-42.58 47.51,-76.94 -6.96,-29.42 -33.21,-49.25 -62.18,-49.25"
         style="fill:#f57f25;fill-opacity:1;fill-rule:nonzero;stroke:none"
         id="path170" /><path
         d="m 2284.51,2567.38 c -3.38,0.25 -6.77,0.76 -10.17,1.57 -34.37,8.13 -55.64,42.58 -47.51,76.95 6.13,25.9 27.21,44.37 51.93,48.41 -0.62,-43.02 0.97,-86.02 5.75,-126.93"
         style="fill:#f4741d;fill-opacity:1;fill-rule:nonzero;stroke:none"
         id="path172" /><path
         d="m 2645.86,2782.46 c -0.01,-25.27 -13.77,-46.63 -30.74,-47.73 -16.97,-1.1 -30.73,18.49 -30.72,43.76 0.01,25.27 13.76,46.64 30.76,47.75 16.96,1.09 30.71,-18.5 30.7,-43.78"
         style="fill:#623a9f;fill-opacity:1;fill-rule:nonzero;stroke:none"
         id="path174" /><path
         d="m 2387.71,2784.08 c 1.35,-25.24 -11.23,-47.31 -28.12,-49.32 -16.88,-2.01 -31.68,16.81 -33.03,42.05 -1.35,25.22 11.24,47.31 28.14,49.33 16.89,2 31.66,-16.83 33.01,-42.06"
         style="fill:#623a9f;fill-opacity:1;fill-rule:nonzero;stroke:none"
         id="path176" /><path
         d="m 2289.06,2164.74 -1.18,0.14 c -4.53,1.1 -111.96,28.35 -190.47,159.23 -96.63,161.07 -105.01,399.89 -24.9,709.82 5.65,21.86 11.83,43.49 18.36,64.28 1.27,5.16 2.71,10.6 4.33,16.01 18.3,61.39 42.89,114.65 73.1,158.3 30.86,47.73 66.15,81.62 104.8,100.62 50.85,30.76 110.93,46.47 178.19,46.47 29.68,0 61.27,-3.07 93.95,-9.13 -0.05,1.37 -0.09,2.75 -0.09,4.13 0,70.27 57.16,127.42 127.42,127.42 70.26,0 127.42,-57.15 127.42,-127.42 0,-44.53 -23.2,-85.62 -60.97,-108.72 161.85,-177.38 118.66,-507.87 118.2,-511.22 -0.19,-1.39 -0.97,-2.65 -2.13,-3.44 -0.84,-0.58 -1.83,-0.88 -2.82,-0.88 l -1.17,0.14 c -1.91,0.45 -183.1,46.3 -207.75,275.09 -22.59,-65.01 -113,-200.57 -474.8,-268.27 -19.87,-206.22 -14.12,-480.42 124.11,-624.1 1.54,-1.6 1.84,-4.02 0.73,-5.96 -0.9,-1.57 -2.57,-2.51 -4.33,-2.51"
         style="fill:#623a9f;fill-opacity:1;fill-rule:nonzero;stroke:none"
         id="path178" /><path
         d="m 2672.57,3547.03 c -72.39,0 -131.41,-58.39 -132.4,-130.55 -30.87,5.39 -60.72,8.13 -88.88,8.13 -68.02,0 -128.85,-15.87 -180.79,-47.18 -39.32,-19.43 -75.14,-53.86 -106.49,-102.32 -30.33,-43.82 -55.15,-97.56 -73.6,-159.45 -1.47,-4.94 -2.91,-10.26 -4.4,-16.25 -6.53,-20.81 -12.7,-42.41 -18.34,-64.23 -80.45,-311.28 -71.89,-551.38 25.45,-713.65 79.58,-132.65 188.97,-160.39 193.59,-161.5 l 2.35,-0.29 c 3.52,0 6.86,1.87 8.67,5.03 2.22,3.85 1.62,8.7 -1.47,11.91 -136.08,141.45 -142.44,411.68 -123.09,616.41 197.75,37.44 338.85,99.68 419.41,185.03 23.96,25.39 38.86,49.18 48.1,68.98 15.58,-104.45 64,-167.51 104.95,-203.31 51.82,-45.29 102.2,-57.66 104.32,-58.16 l 2.32,-0.28 c 2,0 3.97,0.6 5.64,1.75 2.33,1.6 3.88,4.1 4.26,6.89 1.87,13.65 43.3,331.1 -115.5,510.87 36.26,24.5 58.32,65.49 58.32,109.75 0,73.02 -59.4,132.42 -132.42,132.42 z m 0,-10 c 67.62,0 122.42,-54.8 122.42,-122.42 0,-46.41 -25.83,-86.78 -63.9,-107.53 167.18,-176.49 121.18,-511.73 121.18,-511.73 0,0 -198.01,47.13 -206.41,306.37 0,0 -0.82,-211.23 -481.92,-300.19 -19.79,-201.37 -17.44,-483.61 125.12,-631.79 0,0 -409.19,98.91 -211.71,862.94 5.86,22.65 11.97,43.91 18.29,64.03 1.33,5.38 2.76,10.75 4.35,16.09 17.3,58.01 41.02,111.49 72.42,156.88 32.12,49.66 66.89,81.27 102.89,98.97 48.34,29.22 106.46,45.96 175.99,45.96 29.98,0 62.1,-3.12 96.46,-9.69 1,-0.19 1.94,-0.43 2.92,-0.63 -0.28,3.42 -0.52,6.84 -0.52,10.32 0,67.62 54.81,122.42 122.42,122.42"
         style="fill:#5e379d;fill-opacity:1;fill-rule:nonzero;stroke:none"
         id="path180" /><path
         d="m 1535.75,206.609 c -2.76,0 -5,2.231 -5,5 V 1330.91 c 0,2.77 2.24,5 5,5 h 1902.19 c 2.76,0 5,-2.23 5,-5 V 211.609 c 0,-2.769 -2.24,-5 -5,-5 H 1535.75"
         style="fill:#623a9f;fill-opacity:1;fill-rule:nonzero;stroke:none"
         id="path182" /><path
         d="M 3437.94,1340.91 H 1535.75 c -5.53,0 -10,-4.48 -10,-10 V 211.609 c 0,-5.519 4.47,-10 10,-10 h 1902.19 c 5.52,0 10,4.481 10,10 V 1330.91 c 0,5.52 -4.48,10 -10,10 z m 0,-10 V 211.609 H 1535.75 V 1330.91 h 1902.19"
         style="fill:#5e379d;fill-opacity:1;fill-rule:nonzero;stroke:none"
         id="path184" /><path
         d="m 909.27,209.012 c -2.438,0 -4.52,1.758 -4.926,4.148 -19.797,115.16 -71.828,416.211 -74.832,426.199 -0.453,1.52 -0.18,3.211 0.761,4.481 0.942,1.269 2.411,2.07 3.993,2.07 h 423.604 c 1.49,0 2.9,-0.66 3.85,-1.808 0.95,-1.141 1.34,-2.661 1.06,-4.122 l -75.9,-398.3 -0.28,-0.961 -5.22,-27.637 c -0.45,-2.363 -2.51,-4.07 -4.91,-4.07 h -267.2"
         style="fill:#eaeae7;fill-opacity:1;fill-rule:nonzero;stroke:none"
         id="path186" /><path
         d="m 1257.87,630.91 h 0.05 -0.05 m 0,20 H 834.266 c -3.215,0 -6.239,-1.551 -8.118,-4.172 -1.882,-2.597 -2.382,-5.957 -1.359,-9.019 2.965,-10.918 46.266,-260.43 74.625,-425.399 0.824,-4.8 4.984,-8.308 9.856,-8.308 h 267.2 c 4.8,0 8.93,3.429 9.82,8.136 l 5.15,27.262 0.35,1.332 75.9,398.297 c 0.56,2.93 -0.22,5.961 -2.12,8.25 -1.9,2.301 -4.72,3.621 -7.7,3.621 m 0,-10 -75.9,-398.301 h -0.1 l -5.4,-28.597 h -267.2 c 0,0 -71.7,417.097 -75.004,426.898 h 423.604"
         style="fill:#5e379d;fill-opacity:1;fill-rule:nonzero;stroke:none"
         id="path188" /><path
         d="m 1041.1,449.75 c -16.35,36.809 -12.12,70.121 -5.36,92.129 -43.967,-1.969 -79.131,-45.07 -79.131,-98.09 0,-54.269 36.825,-98.269 82.251,-98.269 1.22,0 2.42,0.16 3.64,0.222 8.62,26.059 15.67,65.61 -1.4,104.008"
         style="fill:#623a9f;fill-opacity:1;fill-rule:nonzero;stroke:none"
         id="path190" /><path
         d="m 1137.45,443.801 c 0,54.269 -36.83,98.281 -82.25,98.281 -1.05,0 -2.07,-0.152 -3.11,-0.203 -6.77,-22.008 -11,-55.32 5.35,-92.129 17.07,-38.398 10.03,-77.949 1.4,-104.008 43.72,2.289 78.61,45.25 78.61,98.059"
         style="fill:#623a9f;fill-opacity:1;fill-rule:nonzero;stroke:none"
         id="path192" /><path
         d="m 834.266,635.91 c -1.848,0 -3.543,1.031 -4.411,2.66 -0.871,1.629 -0.769,3.602 0.266,5.141 l 40.899,60.59 47.003,69.808 c 0.926,1.379 2.481,2.211 4.145,2.211 h 257.602 c 1.75,0 3.38,-0.929 4.29,-2.441 l 41.7,-69.797 36.39,-60.59 c 0.93,-1.551 0.96,-3.472 0.07,-5.043 -0.89,-1.57 -2.55,-2.539 -4.35,-2.539 H 834.266"
         style="fill:#eaeae7;fill-opacity:1;fill-rule:nonzero;stroke:none"
         id="path194" /><path
         d="M 1179.77,781.32 H 922.168 c -3.328,0 -6.434,-1.672 -8.297,-4.422 l -46.996,-69.796 -40.898,-60.59 c -2.067,-3.071 -2.278,-7.02 -0.536,-10.293 1.731,-3.258 5.129,-5.309 8.825,-5.309 h 423.604 c 3.6,0 6.92,1.942 8.7,5.082 1.78,3.137 1.73,6.977 -0.13,10.067 l -36.4,60.613 -41.69,69.769 c -1.8,3.02 -5.06,4.879 -8.58,4.879 m 0,-10 41.7,-69.808 36.4,-60.602 H 834.266 l 40.902,60.602 47,69.808 h 257.602"
         style="fill:#5e379d;fill-opacity:1;fill-rule:nonzero;stroke:none"
         id="path196" /><path
         d="m 4300.23,3670.04 c 0,-235.95 -191.27,-427.22 -427.21,-427.22 -235.94,0 -427.21,191.27 -427.21,427.22 0,235.94 191.27,427.21 427.21,427.21 235.94,0 427.21,-191.27 427.21,-427.21"
         style="fill:#ffffff;fill-opacity:1;fill-rule:nonzero;stroke:none"
         id="path198" /><path
         d="m 4300.23,3670.04 h -5 c 0,-116.61 -47.25,-222.13 -123.66,-298.55 -76.42,-76.42 -181.94,-123.66 -298.55,-123.67 -116.61,0.01 -222.13,47.25 -298.55,123.67 -76.41,76.42 -123.66,181.94 -123.66,298.55 0,116.6 47.25,222.12 123.66,298.55 76.42,76.41 181.94,123.66 298.55,123.66 116.61,0 222.13,-47.25 298.55,-123.66 76.41,-76.43 123.66,-181.95 123.66,-298.55 h 5 5 c 0,238.7 -193.5,432.21 -432.21,432.21 -238.7,0 -432.21,-193.51 -432.21,-432.21 0,-238.71 193.51,-432.21 432.21,-432.22 238.71,0.01 432.21,193.51 432.21,432.22 h -5"
         style="fill:#5e379d;fill-opacity:1;fill-rule:nonzero;stroke:none"
         id="path200" /><path
         d="m 3873.02,4097.25 v -74.32"
         style="fill:#ffffff;fill-opacity:1;fill-rule:nonzero;stroke:none"
         id="path202" /><path
         d="m 3868.02,4097.25 v -74.32 c 0,-2.76 2.24,-5 5,-5 2.76,0 5,2.24 5,5 v 74.32 c 0,2.76 -2.24,5 -5,5 -2.76,0 -5,-2.24 -5,-5"
         style="fill:#5e379d;fill-opacity:1;fill-rule:nonzero;stroke:none"
         id="path204" /><path
         d="m 3873.02,3324.39 v -74.31"
         style="fill:#ffffff;fill-opacity:1;fill-rule:nonzero;stroke:none"
         id="path206" /><path
         d="m 3868.02,3324.39 v -74.31 c 0,-2.76 2.24,-5 5,-5 2.76,0 5,2.24 5,5 v 74.31 c 0,2.77 -2.24,5 -5,5 -2.76,0 -5,-2.23 -5,-5"
         style="fill:#5e379d;fill-opacity:1;fill-rule:nonzero;stroke:none"
         id="path208" /><path
         d="m 3449.43,3673.66 h 74.32"
         style="fill:#ffffff;fill-opacity:1;fill-rule:nonzero;stroke:none"
         id="path210" /><path
         d="m 3449.43,3668.66 h 74.32 c 2.76,0 5,2.24 5,5 0,2.77 -2.24,5 -5,5 h -74.32 c -2.76,0 -5,-2.23 -5,-5 0,-2.76 2.24,-5 5,-5"
         style="fill:#5e379d;fill-opacity:1;fill-rule:nonzero;stroke:none"
         id="path212" /><path
         d="m 4222.29,3673.66 h 74.31"
         style="fill:#ffffff;fill-opacity:1;fill-rule:nonzero;stroke:none"
         id="path214" /><path
         d="m 4222.29,3668.66 h 74.31 c 2.76,0 5,2.24 5,5 0,2.77 -2.24,5 -5,5 h -74.31 c -2.77,0 -5,-2.23 -5,-5 0,-2.76 2.23,-5 5,-5"
         style="fill:#5e379d;fill-opacity:1;fill-rule:nonzero;stroke:none"
         id="path216" /><path
         d="m 3573.51,3973.18 52.54,-52.55"
         style="fill:#ffffff;fill-opacity:1;fill-rule:nonzero;stroke:none"
         id="path218" /><path
         d="m 3569.97,3969.64 52.55,-52.54 c 1.95,-1.96 5.12,-1.96 7.07,0 1.95,1.95 1.95,5.11 0,7.07 l -52.55,52.54 c -1.95,1.96 -5.12,1.96 -7.07,0 -1.95,-1.95 -1.95,-5.11 0,-7.07"
         style="fill:#5e379d;fill-opacity:1;fill-rule:nonzero;stroke:none"
         id="path220" /><path
         d="m 4119.99,3426.69 52.55,-52.55"
         style="fill:#ffffff;fill-opacity:1;fill-rule:nonzero;stroke:none"
         id="path222" /><path
         d="m 4116.45,3423.16 52.55,-52.55 c 1.96,-1.96 5.12,-1.96 7.07,0 1.96,1.95 1.96,5.12 0,7.07 l -52.54,52.55 c -1.96,1.95 -5.12,1.95 -7.08,0 -1.95,-1.96 -1.95,-5.12 0,-7.07"
         style="fill:#5e379d;fill-opacity:1;fill-rule:nonzero;stroke:none"
         id="path224" /><path
         d="m 3573.51,3374.14 52.54,52.55"
         style="fill:#ffffff;fill-opacity:1;fill-rule:nonzero;stroke:none"
         id="path226" /><path
         d="m 3577.04,3370.61 52.55,52.55 c 1.95,1.95 1.95,5.11 0,7.07 -1.95,1.95 -5.12,1.95 -7.07,0 l -52.55,-52.55 c -1.95,-1.95 -1.95,-5.12 0,-7.07 1.95,-1.96 5.12,-1.96 7.07,0"
         style="fill:#5e379d;fill-opacity:1;fill-rule:nonzero;stroke:none"
         id="path228" /><path
         d="m 4119.99,3920.63 52.55,52.55"
         style="fill:#ffffff;fill-opacity:1;fill-rule:nonzero;stroke:none"
         id="path230" /><path
         d="m 4123.53,3917.1 52.54,52.54 c 1.96,1.96 1.96,5.12 0,7.07 -1.95,1.96 -5.11,1.96 -7.07,0 l -52.55,-52.54 c -1.95,-1.96 -1.95,-5.12 0,-7.07 1.96,-1.96 5.12,-1.96 7.08,0"
         style="fill:#5e379d;fill-opacity:1;fill-rule:nonzero;stroke:none"
         id="path232" /><path
         d="m 3901.81,3673.66 c 0,-15.89 -12.89,-28.78 -28.79,-28.78 -15.9,0 -28.78,12.89 -28.78,28.78 0,15.9 12.88,28.79 28.78,28.79 15.9,0 28.79,-12.89 28.79,-28.79"
         style="fill:#5e379d;fill-opacity:1;fill-rule:nonzero;stroke:none"
         id="path234" /><path
         d="m 3868.02,3973.18 v -299.52 c 0,-1.37 0.56,-2.68 1.56,-3.63 l 167.16,-158.33 c 2,-1.9 5.17,-1.81 7.07,0.19 1.89,2.01 1.81,5.17 -0.2,7.07 l -165.59,156.85 v 297.37 c 0,2.76 -2.24,5 -5,5 -2.76,0 -5,-2.24 -5,-5"
         style="fill:#5e379d;fill-opacity:1;fill-rule:nonzero;stroke:none"
         id="path236" /><path
         d="m 1176.47,214.012 h -267.2 c 0,0 -60.532,352.129 -72.922,416.898 h 94.004 c 5.722,-46.68 15.394,-100.07 31.64,-152.101 -3.476,-10.868 -5.383,-22.68 -5.383,-35.02 0,-48.219 29.063,-88.32 67.401,-96.668 37.35,-53.07 88.32,-92.973 157.86,-104.512 l -5.4,-28.597"
         style="fill:#cda6d9;fill-opacity:1;fill-rule:nonzero;stroke:none"
         id="path238" /><path
         d="m 1024.01,347.121 c -38.338,8.348 -67.401,48.449 -67.401,96.668 0,12.34 1.907,24.152 5.383,35.02 14.672,-46.989 34.696,-92.86 62.018,-131.688"
         style="fill:#623a9f;fill-opacity:1;fill-rule:nonzero;stroke:none"
         id="path240" /><path
         d="m 929.172,640.91 h -94.906 l 40.902,60.602 47,69.808 c 0,0 -1.602,-55.41 7.004,-130.41"
         style="fill:#cda6d9;fill-opacity:1;fill-rule:nonzero;stroke:none"
         id="path242" /><path
         d="m 930.352,630.91 h -94.004 c -1.094,5.731 -1.813,9.211 -2.082,10 v 0 h 94.906 v 0 c 0.371,-3.289 0.766,-6.629 1.18,-10"
         style="fill:#5f389d;fill-opacity:1;fill-rule:nonzero;stroke:none"
         id="path244" /><path
         d="m 4420.94,764.73 c 0.01,0.02 0.66,4.52 2.06,12.77 4.93,28.891 19.07,103.07 46.19,183.941 27.09,80.869 67.31,168.399 123.59,223.829 l -7.02,7.12 c -66.52,-65.7 -109.86,-172.12 -136.99,-262.21 -27.07,-90.078 -37.7,-163.86 -37.72,-164.02 l 9.9,-1.43"
         style="fill:#623a9f;fill-opacity:1;fill-rule:nonzero;stroke:none"
         id="path246" /><path
         d="m 4558.65,1154.59 c 2.09,1.13 4.24,12.5 5,14.64 4.67,13.17 9.67,26.22 14.91,39.16 16.09,39.69 34.5,78.61 56.45,115.41 25.4,42.58 56.5,86.78 99.84,112.7 21.59,12.91 52.75,19.23 77.74,17.33 41.74,-3.16 71.76,-38.53 50.63,-78.22 -17.63,-33.13 -52.33,-54.51 -80.93,-77.17 -44.47,-35.2 -92.21,-66.3 -140.61,-95.78 -27.3,-16.63 -54.89,-32.9 -83.03,-48.07"
         style="fill:#623a9f;fill-opacity:1;fill-rule:nonzero;stroke:none"
         id="path248" /><path
         d="m 4509.39,642.18 c 0,0.011 0.06,0.84 0.21,2.531 1.13,12.609 7.24,71.031 28.29,141.187 21.03,70.172 57.05,151.993 117.48,211.551 l -7.03,7.121 c -66.39,-65.531 -103.44,-155.898 -124.1,-229.851 -20.63,-73.957 -24.8,-131.59 -24.82,-131.809 l 9.97,-0.73"
         style="fill:#623a9f;fill-opacity:1;fill-rule:nonzero;stroke:none"
         id="path250" /><path
         d="m 4614.71,959.34 c 3.1,1.68 6.44,18.398 7.65,21.609 6.75,17.91 14.22,35.571 22.44,52.851 19.91,41.83 44.65,86.66 82.07,115.37 23.64,18.13 91.71,36.95 105.2,-5.1 2.31,-7.16 0.48,-15.02 -2.45,-21.94 -10.51,-24.85 -33.48,-42 -53.84,-58.48 -22.63,-18.33 -46.68,-34.88 -71.11,-50.69 -29.29,-18.94 -59.26,-37.062 -89.96,-53.62"
         style="fill:#623a9f;fill-opacity:1;fill-rule:nonzero;stroke:none"
         id="path252" /><path
         d="m 4209.47,1206.72 0.31,-0.28 c 7.15,-6.38 135.2,-124.03 195.49,-473.35 l 9.85,1.699 c -62.52,362.621 -198.3,478.841 -199.16,479.541 l -6.49,-7.61"
         style="fill:#623a9f;fill-opacity:1;fill-rule:nonzero;stroke:none"
         id="path254" /><path
         d="m 4252.58,1164.87 c -2.81,1.7 -5.56,12.14 -6.9,14.99 -6.24,13.34 -12.66,26.59 -19.23,39.77 -20.16,40.41 -41.65,80.21 -65.2,118.75 -24.26,39.65 -50.58,79.47 -83.6,112.46 -19.86,19.82 -50.8,46.6 -81.34,35.88 -19.47,-6.82 -36.79,-29.91 -39.18,-49.65 -3.87,-32.02 27.6,-64.81 48.2,-86.29 22.07,-23.03 46.4,-43.89 71.3,-63.78 45.93,-36.71 94.4,-70.28 143.86,-102.02 10.62,-6.82 21.28,-13.6 32.09,-20.11"
         style="fill:#623a9f;fill-opacity:1;fill-rule:nonzero;stroke:none"
         id="path256" /><path
         d="m 4358.8,759.281 c 0,0 -0.29,0.867 -0.85,2.668 -3.92,12.621 -19.86,68.602 -19.85,142.52 0,56.082 9.15,122.451 39.52,188.191 l -9.08,4.19 c -31.12,-67.39 -40.44,-135.229 -40.44,-192.381 0.01,-86.117 21.13,-148.078 21.24,-148.418 l 9.46,3.23"
         style="fill:#623a9f;fill-opacity:1;fill-rule:nonzero;stroke:none"
         id="path258" /><path
         d="m 4361.54,1064.41 c -1.94,31.54 -0.73,63.6 2.34,95.02 4.68,48.2 13.47,107.03 48.48,143.55 16.76,17.49 40.34,26.34 64.59,23.53 85.34,-9.91 -67.56,-202.65 -88.5,-229.1 -8.8,-11.12 -17.7,-22.2 -26.91,-33"
         style="fill:#623a9f;fill-opacity:1;fill-rule:nonzero;stroke:none"
         id="path260" /><path
         d="m 4356.01,766.961 c -0.12,0.187 -28.7,50.418 -79.16,108.289 -50.49,57.852 -122.83,123.469 -210.97,154.03 l -3.27,-9.45 c 85.53,-29.592 156.89,-94.01 206.7,-151.15 24.91,-28.559 44.44,-55.282 57.73,-74.828 6.64,-9.77 11.72,-17.75 15.14,-23.282 1.71,-2.769 3,-4.922 3.86,-6.371 0.86,-1.449 1.27,-2.179 1.27,-2.179 l 8.7,4.941"
         style="fill:#623a9f;fill-opacity:1;fill-rule:nonzero;stroke:none"
         id="path262" /><path
         d="m 4151.04,982.602 c -3.5,0.437 -12.7,14.859 -15,17.428 -12.81,14.3 -26.21,28.11 -40.17,41.29 -46.14,43.58 -123.53,110.79 -190.76,71.34 -7.69,-4.51 -14.79,-10.33 -19.57,-17.85 -24.48,-38.51 34.84,-58.4 61.16,-67.88 28.09,-10.12 57.22,-17.41 86.36,-23.81 38.88,-8.518 78.25,-15.409 117.74,-20.491 l 0.24,-0.027"
         style="fill:#623a9f;fill-opacity:1;fill-rule:nonzero;stroke:none"
         id="path264" /><path
         d="m 4192.06,233.98 v 610.411 h 436.28 V 233.98 h -436.28"
         style="fill:#f6df53;fill-opacity:1;fill-rule:nonzero;stroke:none"
         id="path266" /><path
         d="M 4633.34,849.391 H 4187.06 V 228.98 h 446.28 v 10 600.411 z m -10,-10 V 238.98 h -426.28 v 600.411 h 426.28"
         style="fill:#5e379d;fill-opacity:1;fill-rule:nonzero;stroke:none"
         id="path268" /><path
         d="m 4603.27,238.98 h -406.21 v 600.411 c 0,0 57.41,-552.61 406.21,-600.411"
         style="fill:#f0d32d;fill-opacity:1;fill-rule:nonzero;stroke:none"
         id="path270" /><path
         d="m 540.297,476.852 c -1.121,0 -2.262,0.058 -3.406,0.179 -16.715,1.668 -29.813,16.891 -29.813,34.649 v 359.711 c 0,2.769 2.238,5 5,5 h 56.434 c 2.761,0 5,-2.231 5,-5 V 510.059 c 0,-8.868 -3.457,-17.207 -9.735,-23.477 -6.265,-6.273 -14.613,-9.73 -23.48,-9.73"
         style="fill:#f6df53;fill-opacity:1;fill-rule:nonzero;stroke:none"
         id="path272" /><path
         d="m 568.512,881.391 h -56.434 c -5.519,0 -10,-4.481 -10,-10 V 511.68 c 0,-20.301 15.074,-37.711 34.313,-39.629 1.312,-0.129 2.617,-0.199 3.906,-0.199 21.07,0 38.215,17.148 38.215,38.207 v 361.332 c 0,5.519 -4.481,10 -10,10 z m 0,-10 V 510.059 c 0,-15.567 -12.633,-28.207 -28.215,-28.207 -0.957,0 -1.934,0.046 -2.91,0.148 -14.688,1.469 -25.309,14.922 -25.309,29.68 v 359.711 h 56.434"
         style="fill:#5e379d;fill-opacity:1;fill-rule:nonzero;stroke:none"
         id="path274" /><path
         d="m 549.734,898.988 c -4.718,6.293 -14.16,6.293 -18.879,0 l -18.777,-25.039 v -2.558 h 56.434 v 2.558 l -18.778,25.039"
         style="fill:#623a9f;fill-opacity:1;fill-rule:nonzero;stroke:none"
         id="path276" /><path
         d="m 458.086,827.879 15.934,-11.848 v -59.222 l -15.934,-14.207 v 85.277"
         style="fill:#623a9f;fill-opacity:1;fill-rule:nonzero;stroke:none"
         id="path278" /><path
         d="m 429.871,553.801 c -18.312,0 -33.211,14.898 -33.211,33.211 v 294.429 h 66.426 V 587.012 c 0,-18.313 -14.898,-33.211 -33.215,-33.211"
         style="fill:#f6df53;fill-opacity:1;fill-rule:nonzero;stroke:none"
         id="path280" /><path
         d="M 468.086,886.441 H 391.66 V 587.012 c 0,-21.082 17.145,-38.211 38.211,-38.211 21.07,0 38.215,17.129 38.215,38.211 v 289.429 z m -10,-10 V 587.012 c 0,-15.59 -12.633,-28.211 -28.215,-28.211 -15.578,0 -28.211,12.621 -28.211,28.211 v 289.429 h 56.426"
         style="fill:#5e379d;fill-opacity:1;fill-rule:nonzero;stroke:none"
         id="path282" /><path
         d="m 396.66,871.441 v 48.668 c 0,18.313 14.899,33.223 33.211,33.223 18.317,0 33.215,-14.91 33.215,-33.223 V 871.441 H 396.66"
         style="fill:#f6df53;fill-opacity:1;fill-rule:nonzero;stroke:none"
         id="path284" /><path
         d="m 429.871,958.332 c -21.066,0 -38.211,-17.141 -38.211,-38.223 v -43.668 -10 h 10 56.426 10 v 10 43.668 c 0,21.082 -17.145,38.223 -38.215,38.223 z m 0,-10 c 15.582,0 28.215,-12.633 28.215,-28.223 V 876.441 H 401.66 v 43.668 c 0,15.59 12.633,28.223 28.211,28.223"
         style="fill:#5e379d;fill-opacity:1;fill-rule:nonzero;stroke:none"
         id="path286" /><path
         d="m 341.824,476.852 c -18.312,0 -33.211,14.898 -33.211,33.207 V 843.18 c 0,18.308 14.899,33.211 33.211,33.211 18.317,0 33.215,-14.903 33.215,-33.211 V 510.059 c 0,-18.309 -14.898,-33.207 -33.215,-33.207"
         style="fill:#f6df53;fill-opacity:1;fill-rule:nonzero;stroke:none"
         id="path288" /><path
         d="m 341.824,881.391 c -21.066,0 -38.211,-17.153 -38.211,-38.211 V 510.059 c 0,-21.059 17.145,-38.207 38.211,-38.207 21.074,0 38.215,17.148 38.215,38.207 V 843.18 c 0,21.058 -17.141,38.211 -38.215,38.211 z m 0,-10 c 15.582,0 28.215,-12.629 28.215,-28.211 V 510.059 c 0,-15.567 -12.633,-28.207 -28.215,-28.207 -15.578,0 -28.211,12.64 -28.211,28.207 V 843.18 c 0,15.582 12.633,28.211 28.211,28.211"
         style="fill:#5e379d;fill-opacity:1;fill-rule:nonzero;stroke:none"
         id="path290" /><path
         d="m 620.348,742.52 -15.934,-11.84 v -59.231 l 15.934,-14.207 v 85.278"
         style="fill:#623a9f;fill-opacity:1;fill-rule:nonzero;stroke:none"
         id="path292" /><path
         d="m 648.559,468.43 c -18.317,0 -33.211,14.91 -33.211,33.218 v 294.434 h 66.425 V 501.648 c 0,-18.308 -14.898,-33.218 -33.214,-33.218"
         style="fill:#f6df53;fill-opacity:1;fill-rule:nonzero;stroke:none"
         id="path294" /><path
         d="M 686.773,801.082 H 610.348 V 501.648 c 0,-21.078 17.136,-38.218 38.211,-38.218 21.07,0 38.214,17.14 38.214,38.218 v 289.434 z m -10,-10 V 501.648 c 0,-15.589 -12.632,-28.218 -28.214,-28.218 -15.579,0 -28.211,12.629 -28.211,28.218 v 289.434 h 56.425"
         style="fill:#5e379d;fill-opacity:1;fill-rule:nonzero;stroke:none"
         id="path296" /><path
         d="m 648.559,862.969 v 0 c 15.582,0 28.214,-12.629 28.214,-28.219 v -43.668 h -56.425 v 43.668 c 0,15.59 12.632,28.219 28.211,28.219"
         style="fill:#623a9f;fill-opacity:1;fill-rule:nonzero;stroke:none"
         id="path298" /><path
         d="M 697.07,706.109 V 319.012 c 0,-28.992 -11.504,-55.293 -30.207,-74.602 -19.496,-20.191 -46.898,-32.789 -77.195,-32.789 H 381.465 c -59.395,0 -107.5,48.09 -107.5,107.391 V 706.109 H 697.07"
         style="fill:#5d3299;fill-opacity:1;fill-rule:nonzero;stroke:none"
         id="path300" /><path
         d="M 666.863,244.41 C 647.367,224.219 619.965,211.621 589.668,211.621 H 381.465 c -59.395,0 -107.5,48.09 -107.5,107.391 v 387.097 c 0,0 127.203,-365.597 392.898,-461.699"
         style="fill:#582b94;fill-opacity:1;fill-rule:nonzero;stroke:none"
         id="path302" /><path
         d="m 260.078,5 c -66.894,0 -121.316,54.4219 -121.316,121.309 0,66.902 54.422,121.32 121.316,121.32 H 4881.26 c 66.89,0 121.32,-54.418 121.32,-121.32 C 5002.58,59.4219 4948.15,5 4881.26,5 H 260.078"
         style="fill:#eaeae7;fill-opacity:1;fill-rule:nonzero;stroke:none"
         id="path304" /><path
         d="M 4881.26,252.629 H 260.078 c -69.652,0 -126.316,-56.668 -126.316,-126.32 C 133.762,56.6719 190.426,0 260.078,0 H 4881.26 c 69.65,0 126.32,56.6719 126.32,126.309 0,69.652 -56.67,126.32 -126.32,126.32 z m 0,-10 c 64.24,0 116.32,-52.078 116.32,-116.32 C 4997.58,62.082 4945.5,10 4881.26,10 H 260.078 c -64.238,0 -116.316,52.082 -116.316,116.309 0,64.242 52.078,116.32 116.316,116.32 H 4881.26"
         style="fill:#5e379d;fill-opacity:1;fill-rule:nonzero;stroke:none"
         id="path306" /><path
         d="M 1781.01,4127.31 H 811.406 c -94.66,0 -171.386,-76.73 -171.386,-171.38 v -370.04 c 0,-94.66 76.726,-171.39 171.386,-171.39 h 722.174 l 234.96,-170.42 -56.01,170.42 h 68.48 c 94.65,0 171.38,76.73 171.38,171.39 v 370.04 c 0,94.65 -76.73,171.38 -171.38,171.38"
         style="fill:#623a9f;fill-opacity:1;fill-rule:nonzero;stroke:none"
         id="path308" /><path
         d="M 1853.57,4160.81 H 883.965 c -94.652,0 -171.387,-76.73 -171.387,-171.38 v -370.04 c 0,-94.66 76.735,-171.39 171.387,-171.39 h 722.175 l 234.95,-170.42 -56,170.42 h 68.48 c 94.65,0 171.39,76.73 171.39,171.39 v 370.04 c 0,94.65 -76.74,171.38 -171.39,171.38"
         style="fill:#ffffff;fill-opacity:1;fill-rule:nonzero;stroke:none"
         id="path310" /><path
         d="m 1853.57,4160.81 v 5 H 883.965 v 0 c -97.418,0 -176.383,-78.97 -176.387,-176.38 V 3619.39 C 707.582,3521.96 786.547,3443 883.965,3443 h 720.555 l 233.64,-169.47 c 1.76,-1.28 4.12,-1.27 5.88,0.01 1.76,1.28 2.48,3.53 1.8,5.6 L 1792,3443 h 61.57 c 97.42,0 176.38,78.96 176.39,176.39 v 370.04 c -0.01,97.41 -78.97,176.38 -176.39,176.38 v 0 -5 -5 c 45.96,0 87.53,-18.61 117.65,-48.73 30.12,-30.13 48.73,-71.69 48.74,-117.65 v -370.04 c -0.01,-45.97 -18.62,-87.53 -48.74,-117.66 -30.12,-30.12 -71.69,-48.73 -117.65,-48.73 h -68.48 c -1.6,0 -3.11,-0.77 -4.05,-2.07 -0.94,-1.3 -1.2,-2.97 -0.7,-4.5 l 51.18,-155.73 -222.44,161.34 c -0.85,0.62 -1.89,0.96 -2.94,0.96 H 883.965 c -45.961,0 -87.527,18.61 -117.652,48.73 -30.118,30.13 -48.731,71.69 -48.735,117.66 v 370.04 c 0.004,45.96 18.617,87.52 48.735,117.65 30.125,30.12 71.691,48.73 117.652,48.73 h 969.605 v 5"
         style="fill:#623a9f;fill-opacity:1;fill-rule:nonzero;stroke:none"
         id="path312" /><path
         d="m 825.02,3741.61 h 954.69 c 2.76,0 5,2.24 5,5 0,2.76 -2.24,5 -5,5 H 825.02 c -2.762,0 -5,-2.24 -5,-5 0,-2.76 2.238,-5 5,-5"
         style="fill:#623a9f;fill-opacity:1;fill-rule:nonzero;stroke:none"
         id="path314" /><path
         d="m 825.02,4006.13 h 492.13 c 2.76,0 5,2.23 5,5 0,2.76 -2.24,5 -5,5 H 825.02 c -2.762,0 -5,-2.24 -5,-5 0,-2.77 2.238,-5 5,-5"
         style="fill:#623a9f;fill-opacity:1;fill-rule:nonzero;stroke:none"
         id="path316" /><path
         d="m 826.113,3870.04 h 599.847 c 2.76,0 5,2.24 5,5 0,2.76 -2.24,5 -5,5 H 826.113 c -2.761,0 -5,-2.24 -5,-5 0,-2.76 2.239,-5 5,-5"
         style="fill:#623a9f;fill-opacity:1;fill-rule:nonzero;stroke:none"
         id="path318" /><path
         d="m 827.91,3805.59 h 794.96 c 2.76,0 5,2.24 5,5 0,2.76 -2.24,5 -5,5 H 827.91 c -2.762,0 -5,-2.24 -5,-5 0,-2.76 2.238,-5 5,-5"
         style="fill:#623a9f;fill-opacity:1;fill-rule:nonzero;stroke:none"
         id="path320" /><path
         d="m 829.094,3675.48 h 943.076 c 2.76,0 5,2.24 5,5 0,2.76 -2.24,5 -5,5 H 829.094 c -2.766,0 -5,-2.24 -5,-5 0,-2.76 2.234,-5 5,-5"
         style="fill:#623a9f;fill-opacity:1;fill-rule:nonzero;stroke:none"
         id="path322" /><path
         d="m 829.148,3609.35 h 950.722 c 2.76,0 5,2.24 5,5 0,2.76 -2.24,5 -5,5 H 829.148 c -2.757,0 -5,-2.24 -5,-5 0,-2.76 2.243,-5 5,-5"
         style="fill:#623a9f;fill-opacity:1;fill-rule:nonzero;stroke:none"
         id="path324" /><path
         d="m 829.648,3940 h 947.572 c 2.76,0 5,2.23 5,5 0,2.76 -2.24,5 -5,5 H 829.648 c -2.761,0 -5,-2.24 -5,-5 0,-2.77 2.239,-5 5,-5"
         style="fill:#623a9f;fill-opacity:1;fill-rule:nonzero;stroke:none"
         id="path326" /></g></g></svg>
